<svg xmlns="http://www.w3.org/2000/svg" xmlns:xlink="http://www.w3.org/1999/xlink" version="1.1" width="256" height="256" viewBox="0 0 256 256" xml:space="preserve">

<defs>
</defs>
<g style="stroke: none; stroke-width: 0; stroke-dasharray: none; stroke-linecap: butt; stroke-linejoin: miter; stroke-miterlimit: 10; fill: none; fill-rule: nonzero; opacity: 1;" transform="translate(1.4065934065934016 1.4065934065934016) scale(2.81 2.81)" >
	<path d="M 81.732 89 H 61.593 c -4.014 0 -7.268 -3.254 -7.268 -7.268 V 61.528 c 0 -4.014 3.254 -7.268 7.268 -7.268 h 20.139 c 4.014 0 7.268 3.254 7.268 7.268 v 20.205 C 89 85.746 85.746 89 81.732 89 z" style="stroke: none; stroke-width: 1; stroke-dasharray: none; stroke-linecap: butt; stroke-linejoin: miter; stroke-miterlimit: 10; fill: rgb(63,234,221); fill-rule: nonzero; opacity: 1;" transform=" matrix(1 0 0 1 0 0) " stroke-linecap="round" />
	<path d="M 40.188 50.673 H 11.392 C 5.653 50.673 1 46.02 1 40.281 V 11.392 C 1 5.653 5.653 1 11.392 1 h 28.796 c 5.739 0 10.392 4.653 10.392 10.392 v 28.889 C 50.579 46.02 45.927 50.673 40.188 50.673 z" style="stroke: none; stroke-width: 1; stroke-dasharray: none; stroke-linecap: butt; stroke-linejoin: miter; stroke-miterlimit: 10; fill: rgb(2,192,252); fill-rule: nonzero; opacity: 1;" transform=" matrix(1 0 0 1 0 0) " stroke-linecap="round" />
	<path d="M 73.178 81.649 c -0.553 0 -1 -0.447 -1 -1 V 67.895 c 0 -2.362 -1.917 -4.284 -4.273 -4.284 s -4.273 1.922 -4.273 4.284 v 12.755 c 0 0.553 -0.447 1 -1 1 s -1 -0.447 -1 -1 V 67.895 c 0 -3.465 2.814 -6.284 6.273 -6.284 s 6.273 2.819 6.273 6.284 v 12.755 C 74.178 81.202 73.73 81.649 73.178 81.649 z" style="stroke: none; stroke-width: 1; stroke-dasharray: none; stroke-linecap: butt; stroke-linejoin: miter; stroke-miterlimit: 10; fill: rgb(0,0,0); fill-rule: nonzero; opacity: 1;" transform=" matrix(1 0 0 1 0 0) " stroke-linecap="round" />
	<path d="M 73.178 73.418 H 62.631 c -0.553 0 -1 -0.447 -1 -1 s 0.447 -1 1 -1 h 10.547 c 0.553 0 1 0.447 1 1 S 73.73 73.418 73.178 73.418 z" style="stroke: none; stroke-width: 1; stroke-dasharray: none; stroke-linecap: butt; stroke-linejoin: miter; stroke-miterlimit: 10; fill: rgb(0,0,0); fill-rule: nonzero; opacity: 1;" transform=" matrix(1 0 0 1 0 0) " stroke-linecap="round" />
	<path d="M 80.694 81.649 c -0.553 0 -1 -0.447 -1 -1 V 62.61 c 0 -0.553 0.447 -1 1 -1 s 1 0.447 1 1 v 18.039 C 81.694 81.202 81.247 81.649 80.694 81.649 z" style="stroke: none; stroke-width: 1; stroke-dasharray: none; stroke-linecap: butt; stroke-linejoin: miter; stroke-miterlimit: 10; fill: rgb(0,0,0); fill-rule: nonzero; opacity: 1;" transform=" matrix(1 0 0 1 0 0) " stroke-linecap="round" />
	<path d="M 81.732 90 h -20.14 c -4.559 0 -8.268 -3.709 -8.268 -8.268 V 61.527 c 0 -4.559 3.709 -8.268 8.268 -8.268 h 20.14 c 4.559 0 8.268 3.709 8.268 8.268 v 20.205 C 90 86.291 86.291 90 81.732 90 z M 61.593 55.26 c -3.456 0 -6.268 2.812 -6.268 6.268 v 20.205 c 0 3.456 2.812 6.268 6.268 6.268 h 20.14 C 85.188 88 88 85.188 88 81.732 V 61.527 c 0 -3.456 -2.812 -6.268 -6.268 -6.268 H 61.593 z" style="stroke: none; stroke-width: 1; stroke-dasharray: none; stroke-linecap: butt; stroke-linejoin: miter; stroke-miterlimit: 10; fill: rgb(0,0,0); fill-rule: nonzero; opacity: 1;" transform=" matrix(1 0 0 1 0 0) " stroke-linecap="round" />
	<path d="M 40.188 51.673 H 11.392 C 5.11 51.673 0 46.562 0 40.281 v -28.89 C 0 5.11 5.11 0 11.392 0 h 28.796 c 6.281 0 11.392 5.11 11.392 11.392 v 28.89 C 51.579 46.562 46.469 51.673 40.188 51.673 z M 11.392 2 C 6.213 2 2 6.213 2 11.392 v 28.89 c 0 5.179 4.213 9.392 9.392 9.392 h 28.796 c 5.179 0 9.392 -4.213 9.392 -9.392 v -28.89 C 49.579 6.213 45.366 2 40.188 2 H 11.392 z" style="stroke: none; stroke-width: 1; stroke-dasharray: none; stroke-linecap: butt; stroke-linejoin: miter; stroke-miterlimit: 10; fill: rgb(0,0,0); fill-rule: nonzero; opacity: 1;" transform=" matrix(1 0 0 1 0 0) " stroke-linecap="round" />
	<path d="M 13.633 62.483 c -0.552 0 -1 -0.447 -1 -1 v -2.872 c 0 -0.553 0.448 -1 1 -1 s 1 0.447 1 1 v 2.872 C 14.633 62.036 14.186 62.483 13.633 62.483 z" style="stroke: none; stroke-width: 1; stroke-dasharray: none; stroke-linecap: butt; stroke-linejoin: miter; stroke-miterlimit: 10; fill: rgb(0,0,0); fill-rule: nonzero; opacity: 1;" transform=" matrix(1 0 0 1 0 0) " stroke-linecap="round" />
	<path d="M 45.235 72.63 H 27.872 c -1.7 0 -3.083 -1.385 -3.083 -3.086 V 58.611 c 0 -0.553 0.448 -1 1 -1 s 1 0.447 1 1 v 10.933 c 0 0.599 0.486 1.086 1.083 1.086 h 17.363 c 0.552 0 1 0.447 1 1 S 45.788 72.63 45.235 72.63 z" style="stroke: none; stroke-width: 1; stroke-dasharray: none; stroke-linecap: butt; stroke-linejoin: miter; stroke-miterlimit: 10; fill: rgb(0,0,0); fill-rule: nonzero; opacity: 1;" transform=" matrix(1 0 0 1 0 0) " stroke-linecap="round" />
	<path d="M 45.235 90 H 3.083 C 1.383 90 0 88.615 0 86.914 V 58.611 c 0 -0.553 0.448 -1 1 -1 s 1 0.447 1 1 v 28.303 C 2 87.513 2.486 88 3.083 88 h 42.153 c 0.552 0 1 0.447 1 1 S 45.788 90 45.235 90 z" style="stroke: none; stroke-width: 1; stroke-dasharray: none; stroke-linecap: butt; stroke-linejoin: miter; stroke-miterlimit: 10; fill: rgb(0,0,0); fill-rule: nonzero; opacity: 1;" transform=" matrix(1 0 0 1 0 0) " stroke-linecap="round" />
	<path d="M 25.79 90 c -0.552 0 -1 -0.447 -1 -1 v -6.933 c 0 -0.6 -0.485 -1.087 -1.082 -1.087 h -7.992 c -1.7 0 -3.083 -1.385 -3.083 -3.086 v -8.646 c 0 -0.553 0.448 -1 1 -1 s 1 0.447 1 1 v 8.646 c 0 0.599 0.486 1.086 1.083 1.086 h 7.992 c 1.699 0 3.082 1.385 3.082 3.087 V 89 C 26.79 89.553 26.342 90 25.79 90 z" style="stroke: none; stroke-width: 1; stroke-dasharray: none; stroke-linecap: butt; stroke-linejoin: miter; stroke-miterlimit: 10; fill: rgb(0,0,0); fill-rule: nonzero; opacity: 1;" transform=" matrix(1 0 0 1 0 0) " stroke-linecap="round" />
	<path d="M 61.535 14.657 h -2.867 c -0.553 0 -1 -0.448 -1 -1 s 0.447 -1 1 -1 h 2.867 c 0.553 0 1 0.448 1 1 S 62.088 14.657 61.535 14.657 z" style="stroke: none; stroke-width: 1; stroke-dasharray: none; stroke-linecap: butt; stroke-linejoin: miter; stroke-miterlimit: 10; fill: rgb(0,0,0); fill-rule: nonzero; opacity: 1;" transform=" matrix(1 0 0 1 0 0) " stroke-linecap="round" />
	<path d="M 71.662 36.578 c -0.553 0 -1 -0.448 -1 -1 v -7.655 c 0 -0.599 -0.485 -1.086 -1.082 -1.086 H 58.668 c -0.553 0 -1 -0.448 -1 -1 s 0.447 -1 1 -1 H 69.58 c 1.699 0 3.082 1.385 3.082 3.086 v 7.655 C 72.662 36.13 72.215 36.578 71.662 36.578 z" style="stroke: none; stroke-width: 1; stroke-dasharray: none; stroke-linecap: butt; stroke-linejoin: miter; stroke-miterlimit: 10; fill: rgb(0,0,0); fill-rule: nonzero; opacity: 1;" transform=" matrix(1 0 0 1 0 0) " stroke-linecap="round" />
	<path d="M 71.662 46.319 c -0.553 0 -1 -0.448 -1 -1 V 42.88 c 0 -0.552 0.447 -1 1 -1 s 1 0.448 1 1 v 2.438 C 72.662 45.871 72.215 46.319 71.662 46.319 z" style="stroke: none; stroke-width: 1; stroke-dasharray: none; stroke-linecap: butt; stroke-linejoin: miter; stroke-miterlimit: 10; fill: rgb(0,0,0); fill-rule: nonzero; opacity: 1;" transform=" matrix(1 0 0 1 0 0) " stroke-linecap="round" />
	<path d="M 89 46.319 c -0.553 0 -1 -0.448 -1 -1 V 3.086 C 88 2.487 87.515 2 86.918 2 h -28.25 c -0.553 0 -1 -0.448 -1 -1 s 0.447 -1 1 -1 h 28.25 C 88.617 0 90 1.385 90 3.086 v 42.232 C 90 45.871 89.553 46.319 89 46.319 z" style="stroke: none; stroke-width: 1; stroke-dasharray: none; stroke-linecap: butt; stroke-linejoin: miter; stroke-miterlimit: 10; fill: rgb(0,0,0); fill-rule: nonzero; opacity: 1;" transform=" matrix(1 0 0 1 0 0) " stroke-linecap="round" />
	<path d="M 89 26.836 h -6.92 c -1.699 0 -3.082 -1.385 -3.082 -3.086 v -8.006 c 0 -0.599 -0.485 -1.086 -1.083 -1.086 h -8.628 c -0.553 0 -1 -0.448 -1 -1 s 0.447 -1 1 -1 h 8.628 c 1.7 0 3.083 1.385 3.083 3.086 v 8.006 c 0 0.599 0.485 1.086 1.082 1.086 H 89 c 0.553 0 1 0.448 1 1 S 89.553 26.836 89 26.836 z" style="stroke: none; stroke-width: 1; stroke-dasharray: none; stroke-linecap: butt; stroke-linejoin: miter; stroke-miterlimit: 10; fill: rgb(0,0,0); fill-rule: nonzero; opacity: 1;" transform=" matrix(1 0 0 1 0 0) " stroke-linecap="round" />
	<path d="M 38.005 27.471 H 19.924 c -1.666 0 -3.021 -1.355 -3.021 -3.021 V 14.238 c 0 -1.666 1.355 -3.021 3.021 -3.021 h 15.57 c 0.552 0 1 0.448 1 1 s -0.448 1 -1 1 h -15.57 c -0.563 0 -1.021 0.458 -1.021 1.021 V 24.45 c 0 0.563 0.458 1.021 1.021 1.021 h 18.082 c 0.563 0 1.021 -0.458 1.021 -1.021 v -7.549 c 0 -0.254 0.097 -0.499 0.271 -0.684 l 2.815 -3 h -2.058 c -0.552 0 -1 -0.448 -1 -1 s 0.448 -1 1 -1 h 4.368 c 0.399 0 0.759 0.237 0.917 0.603 c 0.159 0.366 0.084 0.791 -0.188 1.082 l -4.125 4.396 v 7.153 C 41.026 26.116 39.671 27.471 38.005 27.471 z" style="stroke: none; stroke-width: 1; stroke-dasharray: none; stroke-linecap: butt; stroke-linejoin: miter; stroke-miterlimit: 10; fill: rgb(0,0,0); fill-rule: nonzero; opacity: 1;" transform=" matrix(1 0 0 1 0 0) " stroke-linecap="round" />
	<path d="M 34.494 17.901 H 23.248 c -0.552 0 -1 -0.448 -1 -1 s 0.448 -1 1 -1 h 11.246 c 0.552 0 1 0.448 1 1 S 35.046 17.901 34.494 17.901 z" style="stroke: none; stroke-width: 1; stroke-dasharray: none; stroke-linecap: butt; stroke-linejoin: miter; stroke-miterlimit: 10; fill: rgb(0,0,0); fill-rule: nonzero; opacity: 1;" transform=" matrix(1 0 0 1 0 0) " stroke-linecap="round" />
	<path d="M 26.702 22.786 h -3.454 c -0.552 0 -1 -0.448 -1 -1 s 0.448 -1 1 -1 h 3.454 c 0.552 0 1 0.448 1 1 S 27.254 22.786 26.702 22.786 z" style="stroke: none; stroke-width: 1; stroke-dasharray: none; stroke-linecap: butt; stroke-linejoin: miter; stroke-miterlimit: 10; fill: rgb(0,0,0); fill-rule: nonzero; opacity: 1;" transform=" matrix(1 0 0 1 0 0) " stroke-linecap="round" />
	<path d="M 31.655 43.147 H 13.574 c -1.666 0 -3.021 -1.355 -3.021 -3.021 v -2.269 l -4.125 -4.396 c -0.273 -0.291 -0.347 -0.715 -0.188 -1.082 c 0.158 -0.366 0.519 -0.603 0.917 -0.603 h 7.951 c 0.552 0 1 0.448 1 1 s -0.448 1 -1 1 H 9.467 l 2.816 3.001 c 0.174 0.185 0.271 0.43 0.271 0.684 v 2.664 c 0 0.563 0.458 1.021 1.021 1.021 h 18.081 c 0.563 0 1.021 -0.458 1.021 -1.021 v -5.328 c 0 -0.563 -0.458 -1.021 -1.021 -1.021 H 19.682 c -0.552 0 -1 -0.448 -1 -1 s 0.448 -1 1 -1 h 11.973 c 1.666 0 3.021 1.355 3.021 3.021 v 5.328 C 34.676 41.792 33.321 43.147 31.655 43.147 z" style="stroke: none; stroke-width: 1; stroke-dasharray: none; stroke-linecap: butt; stroke-linejoin: miter; stroke-miterlimit: 10; fill: rgb(0,0,0); fill-rule: nonzero; opacity: 1;" transform=" matrix(1 0 0 1 0 0) " stroke-linecap="round" />
	<path d="M 27.331 38.462 H 17.108 c -0.552 0 -1 -0.448 -1 -1 s 0.448 -1 1 -1 h 10.223 c 0.552 0 1 0.448 1 1 S 27.883 38.462 27.331 38.462 z" style="stroke: none; stroke-width: 1; stroke-dasharray: none; stroke-linecap: butt; stroke-linejoin: miter; stroke-miterlimit: 10; fill: rgb(0,0,0); fill-rule: nonzero; opacity: 1;" transform=" matrix(1 0 0 1 0 0) " stroke-linecap="round" />
</g>
</svg>