<?xml version="1.0" encoding="UTF-8"?>
<svg version="1.1" xmlns="http://www.w3.org/2000/svg" width="512" height="512">
<path d="M0 0 C3.44837392 2.13668608 6.30843327 4.6382671 9.26953125 7.40625 C12.21116921 6.0180613 14.79848851 4.4004622 17.45703125 2.53125 C27.44396606 -4.15934358 39.09707416 -8.23038289 51.26953125 -6.59375 C55.20835069 -5.26825818 57.84349843 -3.04163065 60.70703125 -0.03125 C62.92085937 4.83917186 63.05313261 9.14044888 62.26953125 14.40625 C60.24014284 18.46502682 58.08745609 21.01107322 54.26953125 23.40625 C51.0625 24.21484375 51.0625 24.21484375 47.45703125 24.84375 C39.41784244 26.45492699 34.0347444 28.34667497 29.26953125 35.40625 C27.10828376 38.90764688 26.96676777 41.84091104 26.85546875 45.921875 C26.81679688 47.17226562 26.778125 48.42265625 26.73828125 49.7109375 C26.70734375 51.01289062 26.67640625 52.31484375 26.64453125 53.65625 C26.60585938 54.97367188 26.5671875 56.29109375 26.52734375 57.6484375 C26.43306943 60.90090161 26.34746375 64.15335996 26.26953125 67.40625 C26.95476364 67.39736755 27.63999603 67.38848511 28.34599304 67.3793335 C34.86111432 67.29858076 41.37609229 67.23798161 47.89160442 67.19900131 C51.23996893 67.17828553 54.5876003 67.14804722 57.93579102 67.10449219 C61.80105286 67.05550098 65.6657323 67.03317261 69.53125 67.015625 C70.71095871 66.99497986 71.89066742 66.97433472 73.10612488 66.95306396 C88.45473122 66.94899698 100.95381838 72.20361063 112.08203125 82.71875 C125.55687495 96.98764699 126.86888495 112.67858261 126.78710938 131.3203125 C126.79253866 133.40948981 126.79966583 135.49866328 126.80834961 137.58782959 C126.8264898 143.22834524 126.81955395 148.86856622 126.80683327 154.50908661 C126.79665722 160.43135837 126.80611168 166.35360608 126.81237793 172.27587891 C126.81964096 182.21847022 126.81010193 192.16094242 126.79101562 202.10351562 C126.76924958 213.57400116 126.77630189 225.04420222 126.79832125 236.51468086 C126.81651357 246.38939906 126.81901484 256.26403197 126.80856657 266.13876152 C126.80235271 272.02494846 126.80143782 277.91100198 126.81471252 283.79718018 C126.82632625 289.33283964 126.81814473 294.86813479 126.7951355 300.40375519 C126.78987782 302.42689664 126.79131131 304.45006912 126.80018616 306.47319794 C126.8736329 324.92744971 124.14007847 339.26707989 110.95703125 353.21875 C99.15861546 364.3605929 85.50617496 368.07643943 69.53125 367.796875 C67.66107964 367.78838531 67.66107964 367.78838531 65.75312805 367.77972412 C61.82068386 367.75756142 57.8891941 367.70740166 53.95703125 367.65625 C51.2702055 367.63386789 48.58335431 367.61763721 45.89648438 367.6015625 C39.35384803 367.55776268 32.81175786 367.49105477 26.26953125 367.40625 C26.32172992 371.74053923 26.41688718 376.07288507 26.51953125 380.40625 C26.53371094 381.62699219 26.54789062 382.84773438 26.5625 384.10546875 C26.77062602 391.8061314 27.24316356 397.98253399 32.64501953 403.91748047 C36.64189383 407.55254068 40.61010603 409.01667799 45.8828125 409.7890625 C52.2287858 410.73365934 55.84967493 411.64640473 60.26953125 416.40625 C63.16887458 421.10138038 62.8822934 426.06203329 62.26953125 431.40625 C60.26285952 435.8209278 57.67382776 438.50052571 53.30078125 440.71484375 C44.51165514 443.70652706 33.36565328 440.66830417 25.20703125 437.046875 C20.06375466 434.33547375 15.54860854 431.33837507 11.26953125 427.40625 C8.10476558 428.85916515 5.53254735 430.67214771 2.76953125 432.78125 C-6.48565271 439.36271415 -18.38934284 442.61458914 -29.73046875 441.40625 C-34.20564552 440.13637078 -37.59865451 438.17375847 -40.23046875 434.28125 C-42.38176847 429.81538228 -42.52926337 425.24694541 -41.73046875 420.40625 C-39.68110425 416.3807126 -37.53796307 413.78837465 -33.73046875 411.40625 C-30.5234375 410.59765625 -30.5234375 410.59765625 -26.91796875 409.96875 C-20.06202231 408.59471297 -15.5651395 407.1621799 -10.48046875 402.21875 C-5.8137861 394.71872432 -5.2342787 387.00735786 -5.04296875 378.34375 C-5.00880859 377.28736328 -4.97464844 376.23097656 -4.93945312 375.14257812 C-4.8577758 372.56390843 -4.78836932 369.98554438 -4.73046875 367.40625 C-5.44073013 367.40776888 -6.15099151 367.40928776 -6.88277596 367.41085267 C-49.0032379 367.50041616 -91.12368877 367.5690221 -133.24422682 367.61051132 C-138.30466375 367.61551399 -143.36510048 367.62069129 -148.42553711 367.62597656 C-149.43295487 367.6270258 -150.44037262 367.62807505 -151.47831819 367.62915608 C-167.7781456 367.64654882 -184.07791643 367.67808028 -200.37771031 367.71486118 C-217.10986316 367.75230209 -233.84198644 367.77449251 -250.57417947 367.78260398 C-260.89412728 367.78808521 -271.21391513 367.80538081 -281.53381369 367.83791587 C-288.61600689 367.85910264 -295.69811771 367.86544063 -302.78034028 367.86025551 C-306.8629726 367.8577002 -310.94532594 367.86154434 -315.02790833 367.8830719 C-318.77337503 367.90267657 -322.51837769 367.90343103 -326.2638667 367.88984558 C-328.24457263 367.88738105 -330.22527388 367.90450786 -332.20589894 367.92257524 C-347.72098183 367.81988424 -360.26599793 362.74945198 -371.54296875 352.09375 C-385.01781245 337.82485301 -386.32982245 322.13391739 -386.24804688 303.4921875 C-386.25347616 301.40301019 -386.26060333 299.31383672 -386.26928711 297.22467041 C-386.2874273 291.58415476 -386.28049145 285.94393378 -386.26777077 280.30341339 C-386.25759472 274.38114163 -386.26704918 268.45889392 -386.27331543 262.53662109 C-386.28057846 252.59402978 -386.27103943 242.65155758 -386.25195312 232.70898438 C-386.23018708 221.23849884 -386.23723939 209.76829778 -386.25925875 198.29781914 C-386.27745107 188.42310094 -386.27995234 178.54846803 -386.26950407 168.67373848 C-386.26329021 162.78755154 -386.26237532 156.90149802 -386.27565002 151.01531982 C-386.28726375 145.47966036 -386.27908223 139.94436521 -386.256073 134.40874481 C-386.25081532 132.38560336 -386.25224881 130.36243088 -386.26112366 128.33930206 C-386.3345704 109.88505029 -383.60101597 95.54542011 -370.41796875 81.59375 C-358.39208305 70.23709571 -344.57147282 66.77712526 -328.33537292 66.92523193 C-326.92996753 66.92348323 -325.52456343 66.91997286 -324.1191662 66.91487527 C-320.29463472 66.90600995 -316.47055868 66.92182097 -312.64608514 66.94198751 C-308.5078985 66.95937133 -304.36973452 66.95340814 -300.23152161 66.95037842 C-293.07420527 66.94828792 -285.91703555 66.96076536 -278.75975609 66.98332977 C-268.41174347 67.01593211 -258.06380127 67.02626519 -247.71574286 67.03128174 C-230.92398051 67.04002151 -214.13229619 67.06660124 -197.34057617 67.10449219 C-181.0355671 67.14124645 -164.73057928 67.16954148 -148.42553711 67.18652344 C-146.91625346 67.18809978 -146.91625346 67.18809978 -145.37647923 67.18970796 C-140.32838153 67.19492837 -135.28028367 67.19998314 -130.23218572 67.20495558 C-88.39822581 67.24637656 -46.56435176 67.31678899 -4.73046875 67.40625 C-4.81233034 63.75956493 -4.92507903 60.11443413 -5.04296875 56.46875 C-5.06552734 55.44716797 -5.08808594 54.42558594 -5.11132812 53.37304688 C-5.43625314 44.12745339 -6.70614488 35.97246579 -13.73046875 29.40625 C-18.41314869 26.54566125 -23.02138569 25.2690596 -28.41796875 24.46875 C-33.66841865 23.63779644 -36.11673803 22.29796001 -39.73046875 18.40625 C-42.45645609 13.90695601 -42.34552299 9.52381669 -41.73046875 4.40625 C-40.40013296 -0.04784895 -38.10642384 -2.70680848 -34.10546875 -5.03125 C-23.1359385 -9.72669468 -9.98603022 -5.29146674 0 0 Z " fill="#E3EAF2" transform="translate(385.73046875,38.59375)"/>
<path d="M0 0 C3.44837392 2.13668608 6.30843327 4.6382671 9.26953125 7.40625 C12.21116921 6.0180613 14.79848851 4.4004622 17.45703125 2.53125 C27.44396606 -4.15934358 39.09707416 -8.23038289 51.26953125 -6.59375 C55.20835069 -5.26825818 57.84349843 -3.04163065 60.70703125 -0.03125 C62.92085937 4.83917186 63.05313261 9.14044888 62.26953125 14.40625 C60.24014284 18.46502682 58.08745609 21.01107322 54.26953125 23.40625 C51.0625 24.21484375 51.0625 24.21484375 47.45703125 24.84375 C39.41784244 26.45492699 34.0347444 28.34667497 29.26953125 35.40625 C27.10828376 38.90764688 26.96676777 41.84091104 26.85546875 45.921875 C26.81679688 47.17226562 26.778125 48.42265625 26.73828125 49.7109375 C26.70734375 51.01289062 26.67640625 52.31484375 26.64453125 53.65625 C26.60585938 54.97367188 26.5671875 56.29109375 26.52734375 57.6484375 C26.43306943 60.90090161 26.34746375 64.15335996 26.26953125 67.40625 C26.95476364 67.39736755 27.63999603 67.38848511 28.34599304 67.3793335 C34.86111432 67.29858076 41.37609229 67.23798161 47.89160442 67.19900131 C51.23996893 67.17828553 54.5876003 67.14804722 57.93579102 67.10449219 C61.80105286 67.05550098 65.6657323 67.03317261 69.53125 67.015625 C70.71095871 66.99497986 71.89066742 66.97433472 73.10612488 66.95306396 C88.45473122 66.94899698 100.95381838 72.20361063 112.08203125 82.71875 C125.55687495 96.98764699 126.86888495 112.67858261 126.78710938 131.3203125 C126.79253866 133.40948981 126.79966583 135.49866328 126.80834961 137.58782959 C126.8264898 143.22834524 126.81955395 148.86856622 126.80683327 154.50908661 C126.79665722 160.43135837 126.80611168 166.35360608 126.81237793 172.27587891 C126.81964096 182.21847022 126.81010193 192.16094242 126.79101562 202.10351562 C126.76924958 213.57400116 126.77630189 225.04420222 126.79832125 236.51468086 C126.81651357 246.38939906 126.81901484 256.26403197 126.80856657 266.13876152 C126.80235271 272.02494846 126.80143782 277.91100198 126.81471252 283.79718018 C126.82632625 289.33283964 126.81814473 294.86813479 126.7951355 300.40375519 C126.78987782 302.42689664 126.79131131 304.45006912 126.80018616 306.47319794 C126.8736329 324.92744971 124.14007847 339.26707989 110.95703125 353.21875 C99.15861546 364.3605929 85.50617496 368.07643943 69.53125 367.796875 C67.66107964 367.78838531 67.66107964 367.78838531 65.75312805 367.77972412 C61.82068386 367.75756142 57.8891941 367.70740166 53.95703125 367.65625 C51.2702055 367.63386789 48.58335431 367.61763721 45.89648438 367.6015625 C39.35384803 367.55776268 32.81175786 367.49105477 26.26953125 367.40625 C26.32172992 371.74053923 26.41688718 376.07288507 26.51953125 380.40625 C26.53371094 381.62699219 26.54789062 382.84773438 26.5625 384.10546875 C26.77062602 391.8061314 27.24316356 397.98253399 32.64501953 403.91748047 C36.64189383 407.55254068 40.61010603 409.01667799 45.8828125 409.7890625 C52.2287858 410.73365934 55.84967493 411.64640473 60.26953125 416.40625 C63.16887458 421.10138038 62.8822934 426.06203329 62.26953125 431.40625 C60.26285952 435.8209278 57.67382776 438.50052571 53.30078125 440.71484375 C44.51165514 443.70652706 33.36565328 440.66830417 25.20703125 437.046875 C20.06375466 434.33547375 15.54860854 431.33837507 11.26953125 427.40625 C8.10476558 428.85916515 5.53254735 430.67214771 2.76953125 432.78125 C-6.48565271 439.36271415 -18.38934284 442.61458914 -29.73046875 441.40625 C-34.20564552 440.13637078 -37.59865451 438.17375847 -40.23046875 434.28125 C-42.38176847 429.81538228 -42.52926337 425.24694541 -41.73046875 420.40625 C-39.68110425 416.3807126 -37.53796307 413.78837465 -33.73046875 411.40625 C-30.5234375 410.59765625 -30.5234375 410.59765625 -26.91796875 409.96875 C-20.06202231 408.59471297 -15.5651395 407.1621799 -10.48046875 402.21875 C-5.8137861 394.71872432 -5.2342787 387.00735786 -5.04296875 378.34375 C-5.00880859 377.28736328 -4.97464844 376.23097656 -4.93945312 375.14257812 C-4.8577758 372.56390843 -4.78836932 369.98554438 -4.73046875 367.40625 C-5.44073013 367.40776888 -6.15099151 367.40928776 -6.88277596 367.41085267 C-49.0032379 367.50041616 -91.12368877 367.5690221 -133.24422682 367.61051132 C-138.30466375 367.61551399 -143.36510048 367.62069129 -148.42553711 367.62597656 C-149.43295487 367.6270258 -150.44037262 367.62807505 -151.47831819 367.62915608 C-167.7781456 367.64654882 -184.07791643 367.67808028 -200.37771031 367.71486118 C-217.10986316 367.75230209 -233.84198644 367.77449251 -250.57417947 367.78260398 C-260.89412728 367.78808521 -271.21391513 367.80538081 -281.53381369 367.83791587 C-288.61600689 367.85910264 -295.69811771 367.86544063 -302.78034028 367.86025551 C-306.8629726 367.8577002 -310.94532594 367.86154434 -315.02790833 367.8830719 C-318.77337503 367.90267657 -322.51837769 367.90343103 -326.2638667 367.88984558 C-328.24457263 367.88738105 -330.22527388 367.90450786 -332.20589894 367.92257524 C-347.72098183 367.81988424 -360.26599793 362.74945198 -371.54296875 352.09375 C-385.01781245 337.82485301 -386.32982245 322.13391739 -386.24804688 303.4921875 C-386.25347616 301.40301019 -386.26060333 299.31383672 -386.26928711 297.22467041 C-386.2874273 291.58415476 -386.28049145 285.94393378 -386.26777077 280.30341339 C-386.25759472 274.38114163 -386.26704918 268.45889392 -386.27331543 262.53662109 C-386.28057846 252.59402978 -386.27103943 242.65155758 -386.25195312 232.70898438 C-386.23018708 221.23849884 -386.23723939 209.76829778 -386.25925875 198.29781914 C-386.27745107 188.42310094 -386.27995234 178.54846803 -386.26950407 168.67373848 C-386.26329021 162.78755154 -386.26237532 156.90149802 -386.27565002 151.01531982 C-386.28726375 145.47966036 -386.27908223 139.94436521 -386.256073 134.40874481 C-386.25081532 132.38560336 -386.25224881 130.36243088 -386.26112366 128.33930206 C-386.3345704 109.88505029 -383.60101597 95.54542011 -370.41796875 81.59375 C-358.39208305 70.23709571 -344.57147282 66.77712526 -328.33537292 66.92523193 C-326.92996753 66.92348323 -325.52456343 66.91997286 -324.1191662 66.91487527 C-320.29463472 66.90600995 -316.47055868 66.92182097 -312.64608514 66.94198751 C-308.5078985 66.95937133 -304.36973452 66.95340814 -300.23152161 66.95037842 C-293.07420527 66.94828792 -285.91703555 66.96076536 -278.75975609 66.98332977 C-268.41174347 67.01593211 -258.06380127 67.02626519 -247.71574286 67.03128174 C-230.92398051 67.04002151 -214.13229619 67.06660124 -197.34057617 67.10449219 C-181.0355671 67.14124645 -164.73057928 67.16954148 -148.42553711 67.18652344 C-146.91625346 67.18809978 -146.91625346 67.18809978 -145.37647923 67.18970796 C-140.32838153 67.19492837 -135.28028367 67.19998314 -130.23218572 67.20495558 C-88.39822581 67.24637656 -46.56435176 67.31678899 -4.73046875 67.40625 C-4.81233034 63.75956493 -4.92507903 60.11443413 -5.04296875 56.46875 C-5.06552734 55.44716797 -5.08808594 54.42558594 -5.11132812 53.37304688 C-5.43625314 44.12745339 -6.70614488 35.97246579 -13.73046875 29.40625 C-18.41314869 26.54566125 -23.02138569 25.2690596 -28.41796875 24.46875 C-33.66841865 23.63779644 -36.11673803 22.29796001 -39.73046875 18.40625 C-42.45645609 13.90695601 -42.34552299 9.52381669 -41.73046875 4.40625 C-40.40013296 -0.04784895 -38.10642384 -2.70680848 -34.10546875 -5.03125 C-23.1359385 -9.72669468 -9.98603022 -5.29146674 0 0 Z M-350.66796875 105.34375 C-354.65543478 111.26453289 -356.17403102 115.70852805 -356.12487793 122.84307861 C-356.13096903 123.67827774 -356.13706014 124.51347686 -356.14333582 125.37398505 C-356.15994918 128.16515276 -356.15519236 130.95586342 -356.15039062 133.74707031 C-356.15773204 135.75141371 -356.16631848 137.75575287 -356.17605591 139.76008606 C-356.19827602 145.20034878 -356.20120223 150.64046004 -356.1993084 156.08076191 C-356.19918869 160.62579942 -356.20775323 165.17080485 -356.21608591 169.71583343 C-356.2353228 180.44225056 -356.23820318 191.16858987 -356.23144531 201.89501953 C-356.22480821 212.95022025 -356.24765509 224.00508701 -356.28475904 235.06022 C-356.31548066 244.55937662 -356.32681327 254.05842596 -356.32292223 263.55763125 C-356.32085683 269.22758207 -356.3263016 274.89727316 -356.35081482 280.56717682 C-356.3731191 285.90251001 -356.37117318 291.23730163 -356.3508873 296.57263756 C-356.3474835 298.52609111 -356.35253907 300.47958137 -356.36687088 302.43298531 C-356.64757976 317.84237096 -356.64757976 317.84237096 -349.28780365 330.99249649 C-347.61501889 332.5688095 -347.61501889 332.5688095 -344.73046875 334.40625 C-343.56533029 335.20139747 -343.56533029 335.20139747 -342.37665367 336.01260853 C-336.75951019 338.15958798 -331.29176051 337.80765441 -325.32901001 337.76701355 C-323.94614655 337.76832232 -322.56328382 337.77095005 -321.18042505 337.77478105 C-317.38575992 337.78148403 -313.59134917 337.76949604 -309.79671645 337.75444686 C-305.70271428 337.74148803 -301.60872638 337.74587585 -297.51470947 337.74815369 C-290.42332182 337.74972652 -283.332017 337.74031629 -276.24065018 337.72344017 C-265.98774542 337.69905607 -255.7348807 337.6912455 -245.48195009 337.6874762 C-228.84715626 337.68091079 -212.21240658 337.66094719 -195.57763672 337.63256836 C-179.41878476 337.60503011 -163.25994486 337.58382978 -147.10107422 337.57104492 C-145.59171718 337.56983893 -145.59171718 337.56983893 -144.05186808 337.56860858 C-136.18239201 337.56237029 -128.31291568 337.55649953 -120.44343925 337.55074489 C-81.87240857 337.52244532 -43.30148838 337.46209008 -4.73046875 337.40625 C-4.73046875 258.20625 -4.73046875 179.00625 -4.73046875 97.40625 C-63.67185717 97.2605795 -63.67185717 97.2605795 -122.61328125 97.16210938 C-130.56022188 97.15232014 -138.50716201 97.14221776 -146.45410156 97.1315918 C-147.45010942 97.13027305 -148.44611729 97.12895431 -149.47230721 97.1275956 C-165.54829954 97.10585404 -181.62420237 97.06643771 -197.70014165 97.02048602 C-214.20062543 96.97371446 -230.70106238 96.94595312 -247.20160973 96.93580753 C-257.38187869 96.92894983 -267.56189478 96.90729704 -277.74208589 96.86666767 C-284.72475045 96.84022069 -291.70728445 96.83225344 -298.68999545 96.83874311 C-302.71763768 96.84194297 -306.74483828 96.83706718 -310.77240181 96.81022263 C-314.46413589 96.78579676 -318.15513359 96.78472193 -321.84690239 96.80175553 C-323.80598276 96.80485105 -325.76505513 96.78336956 -327.72400844 96.76084346 C-336.58180935 96.83558111 -344.54544344 98.45107482 -350.66796875 105.34375 Z " fill="#99DDFE" transform="translate(385.73046875,38.59375)"/>
<path d="M0 0 C70.60722173 0 70.60722173 0 86.8125 15.3125 C100.2873437 29.58139699 101.5993537 45.27233261 101.51757812 63.9140625 C101.52300741 66.00323981 101.53013458 68.09241328 101.53881836 70.18157959 C101.55695855 75.82209524 101.5500227 81.46231622 101.53730202 87.10283661 C101.52712597 93.02510837 101.53658043 98.94735608 101.54284668 104.86962891 C101.55010971 114.81222022 101.54057068 124.75469242 101.52148438 134.69726562 C101.49971833 146.16775116 101.50677064 157.63795222 101.52879 169.10843086 C101.54698232 178.98314906 101.54948359 188.85778197 101.53903532 198.73251152 C101.53282146 204.61869846 101.53190657 210.50475198 101.54518127 216.39093018 C101.556795 221.92658964 101.54861348 227.46188479 101.52560425 232.99750519 C101.52034657 235.02064664 101.52178006 237.04381912 101.53065491 239.06694794 C101.60410165 257.52119971 98.87054722 271.86082989 85.6875 285.8125 C62.41993104 307.7852464 30.41338027 300 0 300 C0 201 0 102 0 0 Z " fill="#CBD5E6" transform="translate(411,106)"/>
<path d="M0 0 C4.72961841 2.67665218 6.85578705 4.88598404 8.8203125 10.08203125 C9.23613325 14.50833782 9.16885477 18.91316518 9.11328125 23.35546875 C9.10903641 24.63434967 9.10479156 25.91323059 9.10041809 27.23086548 C9.0865022 30.61437827 9.05959574 33.99727352 9.02630615 37.38061523 C8.99549838 40.83962699 8.98189 44.29870279 8.96679688 47.7578125 C8.93376004 54.53272152 8.88358401 61.30734076 8.8203125 68.08203125 C9.77728027 67.52628418 10.73424805 66.97053711 11.72021484 66.39794922 C12.99047038 65.66488393 14.26082043 64.9319824 15.53125 64.19921875 C16.16023193 63.8333667 16.78921387 63.46751465 17.43725586 63.09057617 C33.04072659 54.11170112 52.00056633 52.83831463 69.34375 57.046875 C90.17416216 63.24918873 105.49755528 76.03749999 115.8203125 95.08203125 C124.06472681 111.30095345 125.5001739 130.9252649 120.19921875 148.32421875 C115.71400341 161.00839436 109.47956743 170.76621649 99.8203125 180.08203125 C99.18738281 180.74589844 98.55445313 181.40976562 97.90234375 182.09375 C84.91824932 194.84854475 65.4306171 199.45295202 47.86328125 199.296875 C33.57526825 198.74243535 20.5960156 194.00798526 8.8203125 186.08203125 C8.5934375 186.96890625 8.3665625 187.85578125 8.1328125 188.76953125 C6.3815751 193.18932089 3.81913375 195.63460897 0.0078125 198.39453125 C-4.84907082 199.92098029 -9.37661972 199.79492011 -13.9296875 197.58203125 C-17.86296692 194.85328343 -19.83193469 191.63477483 -21.1796875 187.08203125 C-21.77058175 181.39966418 -21.72723769 175.74460736 -21.69726562 170.03686523 C-21.70269101 168.30321669 -21.70981601 166.56957276 -21.71850586 164.8359375 C-21.73669127 160.1438264 -21.72969186 155.45206837 -21.71698952 150.75995135 C-21.70683865 145.842486 -21.71626084 140.9250502 -21.72253418 136.00758362 C-21.72980382 127.75182689 -21.72024009 119.49621347 -21.70117188 111.24047852 C-21.67939725 101.702989 -21.68646155 92.16584147 -21.7084775 82.62836021 C-21.72664235 74.43025078 -21.72918472 66.23224415 -21.71872282 58.0341211 C-21.7124948 53.14178968 -21.7116334 48.24961892 -21.72486877 43.3572979 C-21.73644271 38.75820058 -21.72837342 34.15954336 -21.70529175 29.56049347 C-21.7000132 27.8750869 -21.70150381 26.18964314 -21.71034241 24.50425148 C-21.72131573 22.19886636 -21.70751484 19.8948809 -21.68762207 17.58958435 C-21.68611397 16.30116858 -21.68460587 15.01275282 -21.68305206 13.68529415 C-21.00105828 8.80333967 -19.18352237 4.98567437 -15.5390625 1.5234375 C-10.38093276 -1.29350229 -5.55043794 -2.33755003 0 0 Z " fill="#AA99FE" transform="translate(233.1796875,156.91796875)"/>
<path d="M0 0 C41.25 0 82.5 0 125 0 C125 79.2 125 158.4 125 240 C83.75 240 42.5 240 0 240 C0 231.75 0 223.5 0 215 C2.97 215.66 5.94 216.32 9 217 C29.26447232 221.3081949 49.14954412 219.1417092 67.0078125 208.1484375 C82.38639957 197.39627774 91.64752933 183.98679097 97 166 C97.28145874 165.05942749 97.28145874 165.05942749 97.56860352 164.09985352 C98.93214519 159.18736777 99.28285058 154.64613068 99.1875 149.5625 C99.1774292 148.81315186 99.1673584 148.06380371 99.15698242 147.29174805 C99.1197917 145.19378085 99.06345713 143.09731183 99 141 C98.98195313 140.13890625 98.96390625 139.2778125 98.9453125 138.390625 C97.90478478 122.10942651 88.16481108 107.22357324 77 96 C76.40960938 95.37480469 75.81921875 94.74960938 75.2109375 94.10546875 C62.11072076 81.32265815 42.83637848 76.68147324 25.13671875 76.76953125 C18.30074451 77.02622772 11.66575914 78.54797798 5 80 C2.525 80.495 2.525 80.495 0 81 C0 54.27 0 27.54 0 0 Z " fill="#CBD5E7" transform="translate(256,136)"/>
<path d="M0 0 C3.44837392 2.13668608 6.30843327 4.6382671 9.26953125 7.40625 C12.21116921 6.0180613 14.79848851 4.4004622 17.45703125 2.53125 C27.44396606 -4.15934358 39.09707416 -8.23038289 51.26953125 -6.59375 C55.20835069 -5.26825818 57.84349843 -3.04163065 60.70703125 -0.03125 C62.92085937 4.83917186 63.05313261 9.14044888 62.26953125 14.40625 C60.24014284 18.46502682 58.08745609 21.01107322 54.26953125 23.40625 C51.0625 24.21484375 51.0625 24.21484375 47.45703125 24.84375 C39.41784244 26.45492699 34.0347444 28.34667497 29.26953125 35.40625 C27.35277606 38.62886329 26.97909337 41.12364866 26.86001778 44.85701656 C26.8219328 45.95049312 26.78384783 47.04396967 26.74460876 48.17058188 C26.71425194 49.35613541 26.68389513 50.54168894 26.65261841 51.76316833 C26.61500275 53.0091141 26.57738709 54.25505986 26.53863156 55.53876156 C26.16874952 68.89882642 26.12604044 82.25874228 26.13880658 95.62319005 C26.14112155 99.22993015 26.1375516 102.83666598 26.13482666 106.44340515 C26.13043371 113.4658057 26.1313161 120.48819541 26.1342393 127.51059634 C26.13651901 133.22909003 26.13679488 138.94758074 26.13571548 144.66607475 C26.13548564 145.89760346 26.13548564 145.89760346 26.13525114 147.15401153 C26.13493134 148.82307383 26.13460713 150.49213613 26.13427855 152.16119843 C26.13144278 167.72697643 26.1346808 183.29274849 26.14007892 198.85852551 C26.14454605 212.15023416 26.14376805 225.44193408 26.13916016 238.73364258 C26.13378199 254.254011 26.13171642 269.77437425 26.13477242 285.29474348 C26.13509089 286.95657599 26.13540527 288.6184085 26.13571548 290.28024101 C26.13586976 291.09741521 26.13602404 291.91458941 26.13618299 292.75652646 C26.13703839 298.45388191 26.13560657 304.15123401 26.13323593 309.84858894 C26.1304015 316.81207002 26.1312517 323.77553987 26.13651668 330.7390197 C26.13910522 334.27665595 26.14024356 337.81427362 26.13686752 341.35190964 C26.13059608 350.03750397 26.16732896 358.7212329 26.26953125 367.40625 C26.28923469 369.28049562 26.28923469 369.28049562 26.30933619 371.19260478 C26.35878546 374.89303961 26.43806866 378.5915842 26.52761841 382.29124451 C26.54121741 383.39616778 26.55481642 384.50109106 26.56882751 385.63949686 C26.78473088 392.70935435 27.77119186 398.54403298 32.64505112 403.92484373 C36.65088857 407.54846163 40.60905651 409.01652425 45.8828125 409.7890625 C52.2287858 410.73365934 55.84967493 411.64640473 60.26953125 416.40625 C63.16887458 421.10138038 62.8822934 426.06203329 62.26953125 431.40625 C60.26285952 435.8209278 57.67382776 438.50052571 53.30078125 440.71484375 C44.51165514 443.70652706 33.36565328 440.66830417 25.20703125 437.046875 C20.06375466 434.33547375 15.54860854 431.33837507 11.26953125 427.40625 C8.10476558 428.85916515 5.53254735 430.67214771 2.76953125 432.78125 C-6.48565271 439.36271415 -18.38934284 442.61458914 -29.73046875 441.40625 C-34.20564552 440.13637078 -37.59865451 438.17375847 -40.23046875 434.28125 C-42.38176847 429.81538228 -42.52926337 425.24694541 -41.73046875 420.40625 C-39.68110425 416.3807126 -37.53796307 413.78837465 -33.73046875 411.40625 C-30.5234375 410.59765625 -30.5234375 410.59765625 -26.91796875 409.96875 C-20.06202231 408.59471297 -15.5651395 407.1621799 -10.48046875 402.21875 C-5.35812697 393.986415 -5.30120183 385.7351954 -5.34951782 376.24902344 C-5.34605692 374.82048562 -5.34128946 373.39195047 -5.33533609 371.96342087 C-5.32285572 368.05611262 -5.32898287 364.14902525 -5.33829474 360.24171638 C-5.34509709 356.02078915 -5.33459813 351.79989925 -5.32635498 347.57897949 C-5.3130281 339.31738139 -5.31589073 331.05586513 -5.3245929 322.79426384 C-5.33137315 316.07877812 -5.33228469 309.36331531 -5.32902145 302.64782715 C-5.32856175 301.69137007 -5.32810206 300.734913 -5.32762843 299.74947238 C-5.32666923 297.80633576 -5.32569659 295.86319915 -5.32471065 293.92006254 C-5.31615982 275.70718866 -5.32598608 257.49436011 -5.34211175 239.28149366 C-5.35551465 223.660296 -5.35318647 208.03916521 -5.33935547 192.41796875 C-5.32329425 174.26943994 -5.31698376 156.12095085 -5.32619226 137.97241592 C-5.32714789 136.03650157 -5.328091 134.10058722 -5.32902145 132.16467285 C-5.32948428 131.212212 -5.32994711 130.25975114 -5.33042396 129.27842784 C-5.33301222 122.57244967 -5.32864638 115.86649672 -5.32158279 109.16052246 C-5.31316158 100.98611483 -5.31546101 92.81179361 -5.33142503 84.63739586 C-5.33929937 80.46817139 -5.34241363 76.2990909 -5.33247757 72.12986755 C-5.32351279 68.31038219 -5.32849269 64.49117373 -5.34441023 60.67171335 C-5.34932811 58.6417821 -5.33957749 56.6118315 -5.32923853 54.58192062 C-5.38393208 46.06931542 -6.21564012 39.32642404 -10.85546875 32.09375 C-16.03813251 27.24908605 -21.48004441 25.49763946 -28.41796875 24.46875 C-33.66841865 23.63779644 -36.11673803 22.29796001 -39.73046875 18.40625 C-42.45645609 13.90695601 -42.34552299 9.52381669 -41.73046875 4.40625 C-40.40013296 -0.04784895 -38.10642384 -2.70680848 -34.10546875 -5.03125 C-23.1359385 -9.72669468 -9.98603022 -5.29146674 0 0 Z " fill="#3E3373" transform="translate(385.73046875,38.59375)"/>
<path d="M0 0 C4.7344316 1.91391916 7.72684393 5.45368786 10 10 C10.10115462 11.61632489 10.13943668 13.23676308 10.14717102 14.85623169 C10.15790398 16.39542519 10.15790398 16.39542519 10.16885376 17.9657135 C10.17154266 19.09609543 10.17423157 20.22647736 10.17700195 21.39111328 C10.18357315 22.57824417 10.19014435 23.76537506 10.19691467 24.98847961 C10.21668737 28.93241733 10.22832136 32.87634175 10.23828125 36.8203125 C10.24232913 38.17908626 10.24644606 39.53785981 10.25063133 40.89663315 C10.2696891 47.28358115 10.2839161 53.67051759 10.2922433 60.05748856 C10.30200343 67.42157044 10.32828805 74.78535076 10.36874419 82.14932644 C10.39895881 87.84541323 10.41371742 93.54141389 10.41702431 99.23757923 C10.41936973 102.63725273 10.42826226 106.0366043 10.45348549 109.43619156 C10.47783355 113.23521119 10.47691891 117.03344575 10.4699707 120.83251953 C10.48918579 122.50987434 10.48918579 122.50987434 10.50878906 124.22111511 C10.46405281 130.94105798 9.58079618 135.2697113 6 141 C2.62432553 143.9511051 -1.18264979 144.88528418 -5.5625 145.5 C-10.47271746 144.78578655 -14.12256999 143.28052528 -17.328125 139.38671875 C-19.80300207 135.45654424 -20.15948698 132.52943036 -20 128 C-20.76183594 128.39832031 -21.52367187 128.79664063 -22.30859375 129.20703125 C-38.81165868 137.67489603 -57.23935744 141.65228913 -75.4375 135.9375 C-93.30501483 129.81978246 -107.52371379 117.84936724 -116 101 C-123.08070142 85.20396199 -124.41413863 67.57193588 -119 51 C-112.2182814 33.33451202 -100.65517874 19.97686334 -83.5 11.625 C-66.61914195 4.41609265 -49.92034797 3.86465121 -32.6328125 10.2421875 C-28.50768802 11.91400054 -24.70932584 13.52711611 -21 16 C-20.79375 14.824375 -20.5875 13.64875 -20.375 12.4375 C-19.18330718 7.58437417 -16.60660091 4.38118835 -13 1 C-9.07486948 -0.96256526 -4.28912771 -0.34188699 0 0 Z " fill="#AA99FE" transform="translate(177,211)"/>
<path d="M0 0 C7.33165435 -0.0842988 14.66151435 -0.16438368 21.99323273 -0.20700073 C25.40870785 -0.22796853 28.82377435 -0.25590042 32.23901367 -0.30175781 C36.1736121 -0.35424748 40.10805409 -0.3730748 44.04296875 -0.390625 C45.84534248 -0.42159271 45.84534248 -0.42159271 47.68412781 -0.45318604 C63.10557522 -0.45720181 75.62381587 4.74022084 86.8125 15.3125 C100.2873437 29.58139699 101.5993537 45.27233261 101.51757812 63.9140625 C101.52300741 66.00323981 101.53013458 68.09241328 101.53881836 70.18157959 C101.55695855 75.82209524 101.5500227 81.46231622 101.53730202 87.10283661 C101.52712597 93.02510837 101.53658043 98.94735608 101.54284668 104.86962891 C101.55010971 114.81222022 101.54057068 124.75469242 101.52148438 134.69726562 C101.49971833 146.16775116 101.50677064 157.63795222 101.52879 169.10843086 C101.54698232 178.98314906 101.54948359 188.85778197 101.53903532 198.73251152 C101.53282146 204.61869846 101.53190657 210.50475198 101.54518127 216.39093018 C101.556795 221.92658964 101.54861348 227.46188479 101.52560425 232.99750519 C101.52034657 235.02064664 101.52178006 237.04381912 101.53065491 239.06694794 C101.60410165 257.52119971 98.87054722 271.86082989 85.6875 285.8125 C73.81116328 297.0279276 60.11077639 300.66669607 44.04296875 300.390625 C42.77399246 300.38496521 41.50501617 300.37930542 40.19758606 300.37347412 C36.87148475 300.3550577 33.54654698 300.31931443 30.22076416 300.2746582 C26.80808582 300.2332713 23.39528228 300.21515042 19.98242188 300.1953125 C13.32097457 300.15492785 6.66151983 300.07659365 0 300 C0 290.1 0 280.2 0 270 C3.57714844 269.96261719 7.15429688 269.92523438 10.83984375 269.88671875 C14.32501146 269.84043638 17.81007463 269.78922701 21.29516602 269.73754883 C23.70721014 269.70440525 26.11932985 269.67634082 28.53149414 269.65356445 C32.00960335 269.61982428 35.48702644 269.56749738 38.96484375 269.51171875 C40.03395493 269.50532883 41.1030661 269.4989389 42.20457458 269.49235535 C49.80062733 269.34500075 56.2394239 268.25634566 62.8125 264.3125 C68.93257354 257.84270797 70.15025774 250.6008693 70.14044189 241.98677063 C70.14341302 241.17299255 70.14638414 240.35921447 70.1494453 239.52077645 C70.15812605 236.79028915 70.15964003 234.05984572 70.16113281 231.3293457 C70.16576147 229.37293911 70.1707862 227.41653342 70.17617798 225.46012878 C70.18930043 220.14174949 70.19574678 214.82338282 70.20018864 209.50498986 C70.20311995 206.18150363 70.2072249 202.85802085 70.21169281 199.53453636 C70.22536808 189.13399277 70.23503428 178.73345707 70.2388947 168.33290511 C70.24337397 156.33124799 70.26091569 144.32970485 70.2898953 132.32808238 C70.31152236 123.0489546 70.32159955 113.76985886 70.32293582 104.49070615 C70.32398322 98.94992421 70.32987719 93.40924941 70.34775543 87.86849403 C70.36425348 82.65396724 70.36638313 77.43962792 70.35761642 72.2250843 C70.35684695 70.31475065 70.36117692 68.40440684 70.37107468 66.49409866 C70.3838279 63.87856017 70.37789919 61.26368227 70.36749268 58.64814758 C70.37554908 57.89890198 70.38360548 57.14965637 70.39190602 56.37770635 C70.33081044 49.77540984 68.71801834 43.8633639 65.3125 38.1875 C60.22461355 33.37463444 53.83896176 30.91252478 46.88598633 30.79467773 C45.32470757 30.7647599 45.32470757 30.7647599 43.73188782 30.73423767 C42.60993515 30.71752518 41.48798248 30.70081268 40.33203125 30.68359375 C39.18208176 30.66281265 38.03213226 30.64203156 36.84733582 30.62062073 C33.16911875 30.55516658 29.49082952 30.49625926 25.8125 30.4375 C23.32095604 30.39431087 20.82941941 30.35069645 18.33789062 30.30664062 C12.22533335 30.1986881 6.11272233 30.09958334 0 30 C0 20.1 0 10.2 0 0 Z " fill="#7FBEFE" transform="translate(411,106)"/>
<path d="M0 0 C1.26070313 0.82757813 1.26070313 0.82757813 2.546875 1.671875 C3.19466636 2.03774279 3.84245771 2.40361057 4.50987911 2.78056526 C8.35857081 5.40508104 10.27165425 7.42574696 11.29368782 12.05324936 C11.58336352 16.49838142 11.61429367 20.88392602 11.56274414 25.33544922 C11.57196438 27.06068973 11.58467175 28.78591453 11.6005621 30.51110649 C11.63396794 35.24806261 11.61744993 39.9837299 11.59267235 44.72069073 C11.57458279 49.83058606 11.60250489 54.94025867 11.62451172 60.05010986 C11.66010416 70.05871349 11.6523928 80.06683746 11.62921059 90.07545996 C11.61115097 98.20885502 11.60868996 106.34211555 11.61740112 114.4755249 C11.61862699 115.63265641 11.61985285 116.78978792 11.62111586 117.98198402 C11.62367364 120.3325992 11.62626734 122.68321435 11.62889659 125.03382945 C11.65171462 147.08093927 11.62547088 169.12778308 11.58249366 191.17484927 C11.54675097 210.09651712 11.55295901 229.01779236 11.58984375 247.93945312 C11.63264602 269.90709207 11.64951729 291.87449781 11.62494564 313.84217262 C11.62239722 316.18419008 11.61988225 318.52620757 11.61740112 320.8682251 C11.61616692 322.02057329 11.61493271 323.17292148 11.61366111 324.36018932 C11.60675071 332.48479167 11.6184192 340.60924622 11.63723755 348.73382568 C11.65966364 358.63371585 11.65362764 368.53309852 11.6109916 378.43293047 C11.58995087 383.48514522 11.58175827 388.53651355 11.60818481 393.58872223 C11.63200731 398.21299253 11.61895611 402.83563125 11.5763644 407.45975327 C11.56742063 409.13326155 11.57199216 410.80690739 11.5913707 412.48032737 C11.72507806 424.98476095 11.72507806 424.98476095 8.78777885 429.19079208 C6.7857215 430.9808563 4.87977233 432.35427177 2.546875 433.671875 C1.70640625 434.22359375 0.8659375 434.7753125 0 435.34375 C-9.52116693 440.00304446 -21.11370836 444.09578849 -31.7109375 441.015625 C-35.97783492 439.18920396 -38.79791063 436.94497625 -40.828125 432.73046875 C-42.50582293 427.20455121 -42.31555439 422.36593273 -39.703125 417.234375 C-35.64727102 412.61520797 -32.72480709 411.2956462 -26.640625 410.234375 C-19.78467856 408.86033797 -15.28779575 407.4278049 -10.203125 402.484375 C-5.08078322 394.25204 -5.02385808 386.0008204 -5.07217407 376.51464844 C-5.06871317 375.08611062 -5.06394571 373.65757547 -5.05799234 372.22904587 C-5.04551197 368.32173762 -5.05163912 364.41465025 -5.06095099 360.50734138 C-5.06775334 356.28641415 -5.05725438 352.06552425 -5.04901123 347.84460449 C-5.03568435 339.58300639 -5.03854698 331.32149013 -5.04724915 323.05988884 C-5.0540294 316.34440312 -5.05494094 309.62894031 -5.0516777 302.91345215 C-5.051218 301.95699507 -5.05075831 301.000538 -5.05028468 300.01509738 C-5.04932548 298.07196076 -5.04835284 296.12882415 -5.0473669 294.18568754 C-5.03881607 275.97281366 -5.04864233 257.75998511 -5.064768 239.54711866 C-5.0781709 223.925921 -5.07584272 208.30479021 -5.06201172 192.68359375 C-5.0459505 174.53506494 -5.03964001 156.38657585 -5.04884851 138.23804092 C-5.04980414 136.30212657 -5.05074725 134.36621222 -5.0516777 132.43029785 C-5.05214053 131.477837 -5.05260336 130.52537614 -5.05308021 129.54405284 C-5.05566847 122.83807467 -5.05130263 116.13212172 -5.04423904 109.42614746 C-5.03581783 101.25173983 -5.03811726 93.07741861 -5.05408128 84.90302086 C-5.06195562 80.73379639 -5.06506988 76.5647159 -5.05513382 72.39549255 C-5.04616904 68.57600719 -5.05114894 64.75679873 -5.06706648 60.93733835 C-5.07198436 58.9074071 -5.06223374 56.8774565 -5.05189478 54.84754562 C-5.10658833 46.33494042 -5.93829637 39.59204904 -10.578125 32.359375 C-15.76078876 27.51471105 -21.20270066 25.76326446 -28.140625 24.734375 C-33.3910749 23.90342144 -35.83939428 22.56358501 -39.453125 18.671875 C-42.17911234 14.17258101 -42.06817924 9.78944169 -41.453125 4.671875 C-40.12278921 0.21777605 -37.82908009 -2.44118348 -33.828125 -4.765625 C-22.86754467 -9.45723872 -10.10992039 -4.94740785 0 0 Z " fill="#574D8C" transform="translate(385.453125,38.328125)"/>
<path d="M0 0 C14.23084536 11.99855589 25.70648705 28.32437224 27.421875 47.35546875 C28.62565216 67.62371681 25.28826284 87.4330418 11.50927734 103.21313477 C9.27889731 105.62189917 6.95307924 107.90438441 4.58984375 110.18359375 C3.95691406 110.84746094 3.32398438 111.51132812 2.671875 112.1953125 C-10.321625 124.95934672 -29.77179232 129.5148551 -47.34375 129.41015625 C-55.95978735 129.08156974 -64.26464679 126.89876357 -72.41015625 124.18359375 C-72.41015625 112.63359375 -72.41015625 101.08359375 -72.41015625 89.18359375 C-70.38733151 90.19500612 -68.36150322 91.21365265 -66.4375 92.40234375 C-56.34431128 98.5903174 -44.97356899 99.50593656 -33.53515625 97.12109375 C-24.25792137 94.6006205 -15.67428768 89.37054234 -10.41015625 81.18359375 C-3.87429393 69.60710176 -1.0058582 58.26776235 -4.47265625 44.99609375 C-8.57946129 33.29266342 -15.6414076 25.55720761 -26.41015625 19.87109375 C-30.84650343 17.77082061 -34.45171361 16.35757419 -39.41015625 16.18359375 C-40.37566406 16.12300781 -41.34117187 16.06242187 -42.3359375 16 C-53.55703076 15.56486947 -61.58408043 18.42319525 -70.41015625 25.18359375 C-71.07015625 25.18359375 -71.73015625 25.18359375 -72.41015625 25.18359375 C-72.41015625 13.63359375 -72.41015625 2.08359375 -72.41015625 -9.81640625 C-47.45338772 -18.13532909 -21.38457068 -16.61150938 0 0 Z " fill="#9966FE" transform="translate(328.41015625,226.81640625)"/>
<path d="M0 0 C8.51206111 6.00441627 15.82630489 15.28195941 17.7890625 25.75 C19.16290432 40.40431269 17.00984301 51.22207269 8 63 C0.29450316 71.48883573 -9.80908806 76.04510006 -21.10546875 77.21875 C-31.90596143 77.69090269 -41.58738078 74.68563845 -50 68 C-51.5778125 66.8553125 -51.5778125 66.8553125 -53.1875 65.6875 C-61.61090924 57.6384645 -66.07898948 47.19642415 -66.5 35.5625 C-66.04579246 23.68213412 -62.10170068 13.72699973 -54 5 C-38.23871556 -9.185156 -18.0719727 -11.12778162 0 0 Z " fill="#CBD5E7" transform="translate(308,249)"/>
<path d="M0 0 C8.03825284 6.72268293 13.37366454 14.96539883 14.40234375 25.48828125 C14.709403 36.08990587 12.14953264 45.97704729 5.14453125 54.1171875 C-2.79947106 61.87316608 -11.28644014 65.14597279 -22.2734375 65.48828125 C-32.4682786 65.2537999 -40.36115216 61.9939547 -47.8359375 55.05078125 C-54.83166238 47.68259879 -58.00701144 39.08631144 -58.3359375 28.98828125 C-57.98001058 18.13251023 -53.64950332 10.08794575 -46.2109375 2.36328125 C-33.09453556 -9.78153536 -14.47768574 -9.95091623 0 0 Z " fill="#E3EAF2" transform="translate(142.8359375,253.94921875)"/>
<path d="M0 0 C41.25 0 82.5 0 125 0 C125 9.9 125 19.8 125 30 C83.75 30 42.5 30 0 30 C0 20.1 0 10.2 0 0 Z " fill="#80BFFF" transform="translate(256,376)"/>
<path d="M0 0 C41.25 0 82.5 0 125 0 C125 9.9 125 19.8 125 30 C83.75 30 42.5 30 0 30 C0 20.1 0 10.2 0 0 Z " fill="#80BFFF" transform="translate(256,106)"/>
<path d="M0 0 C0.66 0 1.32 0 2 0 C2 19.8 2 39.6 2 60 C-4.85290253 56.57354873 -7.7501546 50.26820367 -10.375 43.25 C-13.70337888 32.21600448 -12.68501423 21.49598491 -8 11 C-5.62466047 7.08022034 -3.11852193 3.36827369 0 0 Z " fill="#E3E9F2" transform="translate(254,254)"/>
</svg>
