<?xml version="1.0" encoding="UTF-8"?>
<svg version="1.1" xmlns="http://www.w3.org/2000/svg" width="512" height="512">
<path d="M0 0 C0.83983938 -0.00453111 1.67967877 -0.00906223 2.54496783 -0.01373065 C5.35764586 -0.02638551 8.17013052 -0.02475357 10.98283386 -0.02310181 C13.0001246 -0.02908639 15.01741305 -0.03589178 17.03469849 -0.04345703 C22.51411589 -0.06113173 27.99347083 -0.06581305 33.47291398 -0.0670886 C38.04790681 -0.06898787 42.62288511 -0.07634576 47.19787234 -0.08343279 C57.9927368 -0.09972008 68.7875679 -0.10460145 79.58244324 -0.10317993 C90.71543107 -0.10197852 101.84822503 -0.12307964 112.9811638 -0.15466726 C122.54140472 -0.18082537 132.10158231 -0.19154741 141.66185874 -0.19026911 C147.37085164 -0.18975933 153.07967229 -0.19545176 158.78862953 -0.21662521 C164.15916525 -0.23599953 169.52936424 -0.2361374 174.89991188 -0.22159195 C176.86871838 -0.21950174 178.83754592 -0.22421736 180.80631638 -0.23631287 C183.49895751 -0.25178141 186.19043992 -0.24244675 188.88305664 -0.22705078 C189.65787866 -0.23733791 190.43270068 -0.24762503 191.23100215 -0.25822389 C197.78234905 -0.17572854 202.93508606 1.90409868 207.87419128 6.23226929 C208.41301941 6.88324585 208.95184753 7.53422241 209.50700378 8.20492554 C210.06130066 8.85332397 210.61559753 9.50172241 211.18669128 10.16976929 C218.2302185 20.39240202 215.78560141 37.09896087 215.7931366 49.10140991 C215.7977771 50.84741315 215.80280336 52.59341539 215.80818176 54.3394165 C215.82117371 59.03718727 215.82772245 63.73494385 215.83219242 68.43272972 C215.83513962 71.37197938 215.83924699 74.31122528 215.84369659 77.25047302 C215.85732545 86.46083286 215.86701928 95.67118396 215.87089849 104.88155317 C215.87539331 115.49138369 215.89302621 126.10108628 215.92189908 136.7108779 C215.94350162 144.93539235 215.9536017 153.15987072 215.9549396 161.38441324 C215.95598698 166.28835403 215.9618828 171.1921738 215.97975922 176.09608459 C215.99621915 180.69926419 215.99840559 185.30223133 215.98962021 189.90542984 C215.98884921 191.59288731 215.99320085 193.28035615 216.00307846 194.96778488 C216.01578111 197.27295588 216.0099313 199.57737198 215.99949646 201.88253784 C216.00096302 203.17145683 216.00242958 204.46037582 216.00394058 205.78835297 C215.59708118 209.59408934 214.63089909 212.02216155 212.63200378 215.26742554 C210.29273321 216.43706082 208.93523731 216.39073143 206.32936096 216.38768005 C204.97476524 216.38974205 204.97476524 216.38974205 203.59280396 216.3918457 C202.59946548 216.38825043 201.60612701 216.38465515 200.58268738 216.38095093 C199.53876328 216.38109695 198.49483917 216.38124298 197.41928101 216.38139343 C193.95631356 216.38069476 190.49339938 216.37290444 187.03044128 216.36508179 C184.63433359 216.36321745 182.23822552 216.36179362 179.84211731 216.36079407 C173.52591404 216.35697015 167.20973364 216.34714091 160.89353943 216.33609009 C154.45219736 216.32587328 148.01085161 216.32129587 141.56950378 216.31625366 C128.92365876 216.30551855 116.27783675 216.28792275 103.63200378 216.26742554 C103.63200378 226.49742554 103.63200378 236.72742554 103.63200378 247.26742554 C109.45441711 247.24385986 109.45441711 247.24385986 115.39445496 247.21981812 C128.20677276 247.17015062 141.01908906 247.13683515 153.83147717 247.11198902 C161.60105484 247.09652151 169.3705413 247.07543426 177.14006042 247.04110718 C183.91214427 247.0112012 190.68416205 246.99184969 197.45631009 246.98516005 C201.04198307 246.9812498 204.62746706 246.97206276 208.21307945 246.95023537 C212.2163315 246.92606337 216.21925517 246.92545631 220.22257996 246.92684937 C221.41084885 246.91606354 222.59911774 246.90527771 223.82339478 246.89416504 C224.91569397 246.89828903 226.00799316 246.90241302 227.13339233 246.90666199 C228.55341443 246.90251392 228.55341443 246.90251392 230.00212383 246.89828205 C233.16741449 247.34257854 235.05499313 248.40629874 237.63200378 250.26742554 C238.79705368 252.59752533 238.75293958 253.93989631 238.74552917 256.53353882 C238.74545364 257.41430084 238.74537811 258.29506287 238.74530029 259.20251465 C238.74013901 260.15463837 238.73497772 261.10676208 238.72966003 262.08773804 C238.72753761 263.54843216 238.72753761 263.54843216 238.72537231 265.03863525 C238.71976352 268.15659627 238.70720952 271.27448613 238.69450378 274.39242554 C238.68948992 276.50310159 238.68492681 278.61377876 238.68083191 280.72445679 C238.66979123 285.90547075 238.65304452 291.08644306 238.63200378 296.26742554 C239.80440613 296.25854309 240.97680847 296.24966064 242.18473816 296.24050903 C253.24873282 296.15932305 264.31266682 296.09941196 275.37689209 296.06017685 C281.06475772 296.03932735 286.75238232 296.0110575 292.44010925 295.96566772 C297.93199524 295.9221165 303.4236498 295.89826859 308.91569519 295.88791656 C311.00801739 295.88054189 313.10032733 295.86614086 315.19255066 295.84450531 C318.12967521 295.81534839 321.06585089 295.81147471 324.00309753 295.81332397 C324.86265549 295.79894287 325.72221344 295.78456177 326.6078186 295.76974487 C333.47393875 295.81633563 338.68115756 297.68157946 343.87419128 302.23226929 C344.41301941 302.88324585 344.95184753 303.53422241 345.50700378 304.20492554 C346.06130066 304.85332397 346.61559753 305.50172241 347.18669128 306.16976929 C350.52875241 311.02027422 350.9235095 315.48016078 350.89942932 321.24473572 C350.90396043 322.04247829 350.90849155 322.84022086 350.91315997 323.66213745 C350.92580873 326.33213956 350.92418332 329.00193782 350.92253113 331.67196655 C350.92851591 333.58737449 350.93532134 335.50278002 350.94288635 337.41818237 C350.96055444 342.61841514 350.96524196 347.8185821 350.96651793 353.01884198 C350.96841688 357.35810605 350.97577402 361.69735477 350.98286211 366.03661293 C350.99914524 376.27037803 351.00403098 386.50410795 351.00260925 396.73788452 C351.00140647 407.30291889 351.0225357 417.86774941 351.05409658 428.43273216 C351.08021893 437.4994969 351.09097831 446.56619488 351.08969843 455.63299698 C351.08918779 461.05011311 351.0949278 466.46704794 351.11605453 471.88412666 C351.13536995 476.97559229 351.13560745 482.06670232 351.12102127 487.15818024 C351.11892402 489.02868861 351.12368825 490.89921886 351.13574219 492.76968956 C351.15111106 495.3192484 351.14194296 497.86756807 351.1264801 500.417099 C351.14191079 501.53260843 351.14191079 501.53260843 351.15765321 502.6706534 C351.11506667 505.8383608 350.80079173 507.98159973 349.17995644 510.72632504 C345.31728191 513.06262027 341.80623116 512.81991774 337.37028503 512.77536011 C336.42230545 512.78160007 335.47432587 512.78784003 334.49761963 512.79426908 C331.31299658 512.81025636 328.12913285 512.79757217 324.94450378 512.78500366 C322.66471407 512.79042222 320.38492786 512.79754337 318.10514832 512.8062439 C311.90688019 512.82451173 305.70887776 512.8173953 299.51060486 512.80472755 C293.0315325 512.79461786 286.55248326 512.80398758 280.07341003 512.81027222 C268.49436648 512.81802132 256.91544447 512.80557143 245.33642006 512.78523487 C234.83592961 512.76736358 224.33561604 512.77046761 213.83512878 512.78890991 C201.64382399 512.81031179 189.45264518 512.81828632 177.26132202 512.80646086 C170.80687715 512.80021676 164.35255416 512.79941553 157.89811707 512.81260681 C151.83075297 512.82414028 145.7637237 512.81618508 139.69639587 512.79302979 C137.466299 512.78772934 135.23617406 512.78927915 133.00608826 512.79808044 C129.96824934 512.80896652 126.93149201 512.79535586 123.89372253 512.77536011 C123.00540237 512.78428299 122.11708221 512.79320588 121.20184326 512.80239916 C117.51387672 512.75511916 115.27394229 512.66007108 112.08642387 510.7104063 C110.10668577 507.38505199 110.06602874 504.43413541 110.0995636 500.67179871 C110.09065122 499.9029397 110.08173883 499.1340807 110.07255638 498.34192294 C110.04755616 495.76322101 110.0510228 493.18534634 110.05436707 490.60653687 C110.04235938 488.75849256 110.02863001 486.91045875 110.01330566 485.06243896 C109.97682661 480.03947061 109.96526261 475.01672065 109.95863581 469.99363542 C109.94806714 464.73536141 109.91657769 459.47720963 109.88783264 454.2190094 C109.84267833 445.38286561 109.81298292 436.54677571 109.7931366 427.71054077 C109.77009601 417.50514779 109.72612695 407.30001851 109.67007077 397.0947569 C109.61632778 387.2725244 109.57430489 377.45027999 109.53867722 367.62796593 C109.52351437 363.45154384 109.50485646 359.27515915 109.48347855 355.09876442 C109.45902676 350.17320138 109.44504816 345.24771291 109.43901634 340.32209396 C109.43524472 338.5181834 109.4280592 336.7142761 109.41713524 334.91039467 C109.28402331 311.98794233 109.28402331 311.98794233 115.63200378 304.26742554 C121.38313671 298.55737213 126.04087596 296.04676962 134.21946716 296.01858521 C135.08046021 296.02577576 135.94145325 296.03296631 136.82853699 296.04037476 C137.74610275 296.0400827 138.66366852 296.03979065 139.60903931 296.03948975 C142.63371831 296.04088007 145.6581492 296.05642738 148.68278503 296.07211304 C150.78314072 296.07584422 152.88349815 296.0786907 154.9838562 296.08068848 C160.50600509 296.08831661 166.0280484 296.10795815 171.55015564 296.13009644 C177.18744987 296.15057247 182.82476119 296.15969396 188.46208191 296.16976929 C199.51877633 296.19120476 210.57536475 296.2263803 221.63200378 296.26742554 C221.63200378 285.70742554 221.63200378 275.14742554 221.63200378 264.26742554 C137.81200378 264.26742554 53.99200378 264.26742554 -32.36799622 264.26742554 C-32.36799622 274.82742554 -32.36799622 285.38742554 -32.36799622 296.26742554 C-29.56235168 296.24647827 -26.75670715 296.22553101 -23.86604309 296.20394897 C-14.58217693 296.1375835 -5.29830012 296.09345195 3.98574066 296.06017685 C9.61307351 296.03932817 15.24016271 296.01105985 20.86735535 295.96566772 C26.3008869 295.92211352 31.73418451 295.89826798 37.1678772 295.88791656 C39.2378711 295.88054242 41.30785263 295.86614242 43.37774658 295.84450531 C46.28374102 295.81534436 49.18877652 295.81147487 52.09489441 295.81332397 C52.94510162 295.79894287 53.79530884 295.78456177 54.67127991 295.76974487 C61.5065557 295.81661298 66.70612875 297.70346187 71.87419128 302.23226929 C72.41301941 302.88324585 72.95184753 303.53422241 73.50700378 304.20492554 C74.06130066 304.85332397 74.61559753 305.50172241 75.18669128 306.16976929 C82.2302185 316.39240202 79.78560141 333.09896087 79.7931366 345.10140991 C79.7977771 346.84741315 79.80280336 348.59341539 79.80818176 350.3394165 C79.82117371 355.03718727 79.82772245 359.73494385 79.83219242 364.43272972 C79.83513962 367.37197938 79.83924699 370.31122528 79.84369659 373.25047302 C79.85732545 382.46083286 79.86701928 391.67118396 79.87089849 400.88155317 C79.87539331 411.49138369 79.89302621 422.10108628 79.92189908 432.7108779 C79.94350162 440.93539235 79.9536017 449.15987072 79.9549396 457.38441324 C79.95598698 462.28835403 79.9618828 467.1921738 79.97975922 472.09608459 C79.99621915 476.69926419 79.99840559 481.30223133 79.98962021 485.90542984 C79.98884921 487.59288731 79.99320085 489.28035615 80.00307846 490.96778488 C80.01578111 493.27295588 80.0099313 495.57737198 79.99949646 497.88253784 C80.00096302 499.17145683 80.00242958 500.46037582 80.00394058 501.78835297 C79.59708118 505.59408934 78.63089909 508.02216155 76.63200378 511.26742554 C73.23192679 512.96746404 69.35178812 512.41536791 65.61079407 512.41459656 C64.66452333 512.41827325 63.7182526 512.42194993 62.74330699 512.42573804 C59.55271746 512.43680608 56.36216045 512.44062396 53.17155457 512.44442749 C50.89206335 512.45068968 48.61257316 512.45733626 46.33308411 512.46434021 C40.12652389 512.48177032 33.91997138 512.492307 27.71339273 512.50054574 C23.83951971 512.50569058 19.96564912 512.51176648 16.0917778 512.51805687 C5.37047371 512.53492798 -5.35082666 512.5495639 -16.07214165 512.55680561 C-18.85484188 512.55871556 -21.63754211 512.56063589 -24.42024231 512.56259155 C-25.11188469 512.56307529 -25.80352707 512.56355903 -26.51612832 512.56405743 C-37.72630682 512.57236202 -48.93637876 512.59770636 -60.14651071 512.63017223 C-71.65012658 512.6632171 -83.15367223 512.68091899 -94.65733731 512.68444985 C-101.11854676 512.68680597 -107.57958777 512.69583953 -114.04075241 512.72091103 C-120.11625662 512.74410501 -126.19148044 512.74845997 -132.26701736 512.73814964 C-134.50035278 512.73765209 -136.7337016 512.7440367 -138.96699524 512.75770569 C-142.0092773 512.77528854 -145.05053811 512.76838555 -148.09281921 512.75517273 C-148.98250361 512.76614198 -149.87218801 512.77711122 -150.78883255 512.78841287 C-154.47219512 512.74962606 -156.7237165 512.65711088 -159.91594887 510.72632504 C-161.92280292 507.32791491 -161.9220863 504.27350623 -161.87593079 500.43728638 C-161.88217075 499.64322049 -161.88841071 498.84915461 -161.89483976 498.03102612 C-161.91080973 495.36701192 -161.89815 492.70390766 -161.88557434 490.03988647 C-161.89099386 488.13111334 -161.89811556 486.22234438 -161.90681458 484.31358337 C-161.92507596 479.12532804 -161.91796744 473.9373903 -161.90529823 468.7491293 C-161.89517929 463.31961135 -161.90456138 457.89012081 -161.9108429 452.46060181 C-161.918125 443.33772904 -161.9085194 434.21498569 -161.88948059 425.09213257 C-161.86773689 414.55160362 -161.87474282 404.01138447 -161.89678621 393.4708631 C-161.91495528 384.42017461 -161.91749036 375.36957925 -161.90703154 366.31887841 C-161.90080156 360.9139373 -161.89994689 355.50914161 -161.91317749 350.1042099 C-161.92475628 345.01845802 -161.91667298 339.93310397 -161.89360046 334.84739494 C-161.88832311 332.98341723 -161.88981044 331.11940589 -161.89865112 329.25544167 C-161.90962963 326.70501298 -161.89581579 324.15584807 -161.87593079 321.60549927 C-161.88485367 320.87279556 -161.89377656 320.14009185 -161.90296984 319.385185 C-161.80649614 312.97835086 -159.62808357 307.84653119 -155.40315247 303.02523804 C-154.42668762 302.21699585 -154.42668762 302.21699585 -153.43049622 301.39242554 C-152.78209778 300.83812866 -152.13369934 300.28383179 -151.46565247 299.71273804 C-146.12428729 296.0324678 -141.35452138 295.98853355 -135.07966614 296.04037476 C-133.68868713 296.03993668 -133.68868713 296.03993668 -132.26960754 296.03948975 C-129.21246398 296.04088018 -126.15556582 296.05642804 -123.09846497 296.07211304 C-120.97568902 296.07584418 -118.85291134 296.07869067 -116.73013306 296.08068848 C-111.14880094 296.08831693 -105.56757326 296.10795874 -99.98628235 296.13009644 C-94.28866488 296.15057177 -88.59103051 296.15969381 -82.89338684 296.16976929 C-71.7182108 296.19120531 -60.5431122 296.22533183 -49.36799622 296.26742554 C-49.39941711 294.2995105 -49.39941711 294.2995105 -49.43147278 292.2918396 C-49.50387592 287.4241121 -49.54979735 282.55643219 -49.58772278 277.68832397 C-49.60783747 275.58147172 -49.63513289 273.47467528 -49.66975403 271.36801147 C-49.7182779 268.33955107 -49.74096638 265.31182876 -49.75862122 262.28305054 C-49.77926636 261.34124939 -49.7999115 260.39944824 -49.82118225 259.42910767 C-49.82342843 252.88208341 -49.82342843 252.88208341 -47.46858215 249.70394897 C-44.10618108 247.40451059 -42.24430136 247.14326725 -38.19218445 247.14717102 C-37.09559509 247.14579636 -35.99900574 247.14442169 -34.8691864 247.14300537 C-33.66078094 247.14660065 -32.45237549 247.15019592 -31.20735168 247.15390015 C-29.93909546 247.15375412 -28.67083923 247.15360809 -27.364151 247.15345764 C-23.88089537 247.15317005 -20.39767398 247.15906054 -16.91442633 247.1660316 C-13.27624019 247.17227157 -9.63805333 247.17286945 -5.99986267 247.17405701 C0.89202556 247.17716842 7.78389797 247.18537926 14.67577922 247.1954065 C22.52089785 247.20657352 30.36601723 247.21207957 38.21114182 247.21710193 C54.35143987 247.22756202 70.49171612 247.24590515 86.63200378 247.26742554 C86.63200378 237.03742554 86.63200378 226.80742554 86.63200378 216.26742554 C83.38131042 216.2883728 80.13061707 216.30932007 76.78141785 216.3309021 C66.05263097 216.39711996 55.32383517 216.44134015 44.59489822 216.47467422 C38.08860229 216.49556719 31.58251536 216.52391661 25.07633972 216.56918335 C18.79992869 216.61257924 12.52371895 216.63654976 6.24716949 216.64693451 C3.85010864 216.65433706 1.45305906 216.66879213 -0.94391632 216.69034576 C-4.29613227 216.7192957 -7.64751173 216.72338494 -10.99983215 216.7215271 C-11.99533081 216.7359082 -12.99082947 216.75028931 -14.01649475 216.7651062 C-14.93072205 216.75960754 -15.84494934 216.75410889 -16.78688049 216.7484436 C-17.57962246 216.75213078 -18.37236443 216.75581795 -19.18912888 216.75961685 C-22.38228087 216.03830553 -23.47711474 214.93169333 -25.36799622 212.26742554 C-25.76095169 209.5232322 -25.90892966 207.17999123 -25.87593079 204.43728638 C-25.88217075 203.64322049 -25.88841071 202.84915461 -25.89483976 202.03102612 C-25.91080973 199.36701192 -25.89815 196.70390766 -25.88557434 194.03988647 C-25.89099386 192.13111334 -25.89811556 190.22234438 -25.90681458 188.31358337 C-25.92507596 183.12532804 -25.91796744 177.9373903 -25.90529823 172.7491293 C-25.89517929 167.31961135 -25.90456138 161.89012081 -25.9108429 156.46060181 C-25.918125 147.33772904 -25.9085194 138.21498569 -25.88948059 129.09213257 C-25.86773689 118.55160362 -25.87474282 108.01138447 -25.89678621 97.4708631 C-25.91495528 88.42017461 -25.91749036 79.36957925 -25.90703154 70.31887841 C-25.90080156 64.9139373 -25.89994689 59.50914161 -25.91317749 54.1042099 C-25.92475628 49.01845802 -25.91667298 43.93310397 -25.89360046 38.84739494 C-25.88832311 36.98341723 -25.88981044 35.11940589 -25.89865112 33.25544167 C-25.90962963 30.70501298 -25.89581579 28.15584807 -25.87593079 25.60549927 C-25.88485367 24.87279556 -25.89377656 24.14009185 -25.90296984 23.385185 C-25.80649614 16.97835086 -23.62808357 11.84653119 -19.40315247 7.02523804 C-18.42668762 6.21699585 -18.42668762 6.21699585 -17.43049622 5.39242554 C-16.78209778 4.83812866 -16.13369934 4.28383179 -15.46565247 3.71273804 C-10.49661527 0.28900664 -5.9000423 -0.02338235 0 0 Z " fill="#116FFF" transform="translate(161.3679962158203,-0.267425537109375)"/>
<path d="M0 0 C68.64 0 137.28 0 208 0 C208 52.8 208 105.6 208 160 C139.36 160 70.72 160 0 160 C0 107.2 0 54.4 0 0 Z " fill="#FDFEFF" transform="translate(288,336)"/>
<path d="M0 0 C68.64 0 137.28 0 208 0 C208 52.8 208 105.6 208 160 C139.36 160 70.72 160 0 160 C0 107.2 0 54.4 0 0 Z " fill="#FDFDFF" transform="translate(16,336)"/>
<path d="M0 0 C68.64 0 137.28 0 208 0 C208 52.8 208 105.6 208 160 C139.36 160 70.72 160 0 160 C0 107.2 0 54.4 0 0 Z " fill="#FDFEFF" transform="translate(152,40)"/>
<path d="M0 0 C0.67861399 -0.00779995 1.35722797 -0.01559991 2.05640602 -0.02363622 C4.32380555 -0.04353461 6.58952249 -0.02780245 8.85693359 -0.01205444 C10.48501565 -0.01883161 12.11309003 -0.02773531 13.7411499 -0.03860474 C18.15859533 -0.06139316 22.57545669 -0.05256381 26.99291229 -0.03670931 C31.61638459 -0.02404788 36.23980698 -0.03579109 40.86328125 -0.04364014 C48.62753272 -0.052736 56.39154636 -0.04075048 64.15576172 -0.01693726 C73.13151674 0.01027396 82.10670389 0.00145975 91.08244514 -0.02606928 C98.78961611 -0.04876118 106.49661616 -0.05196006 114.20380974 -0.03887594 C118.80664249 -0.03108185 123.40920834 -0.03003861 128.01202393 -0.04655838 C132.33950626 -0.06100514 136.66625669 -0.05097818 140.99365997 -0.0220871 C142.58153315 -0.0154773 144.16946795 -0.01737223 145.75731659 -0.02840042 C147.92595565 -0.04207344 150.09225232 -0.02492451 152.26074219 0 C153.47378021 0.00188513 154.68681824 0.00377026 155.93661499 0.00571251 C160.05783559 0.8176391 161.55266657 2.38394612 164.13037109 5.63491821 C164.74510193 8.82878113 164.74510193 8.82878113 164.72973633 12.47305298 C164.73367905 13.14035431 164.73762177 13.80765564 164.74168396 14.49517822 C164.74836915 16.6896702 164.71929181 18.88205694 164.68896484 21.07632446 C164.68471189 22.60658872 164.68238585 24.13685943 164.68190002 25.66712952 C164.67574312 28.86917503 164.65308447 32.07051865 164.61743164 35.27236938 C164.57212132 39.37371698 164.55740311 43.4744302 164.55369473 47.57600498 C164.5492633 50.73391456 164.53395511 53.89169146 164.51481819 57.04954338 C164.50594887 58.56178638 164.49921263 60.07404347 164.49465752 61.58630562 C164.48559994 63.69983767 164.46319799 65.81280068 164.43676758 67.92617798 C164.42612778 69.1279921 164.41548798 70.32980621 164.40452576 71.56803894 C164.13728996 74.55751909 163.87499232 76.21723416 162.13037109 78.63491821 C158.62098115 80.94404964 155.54551344 80.88858987 151.41223145 80.89561462 C150.40065908 80.90135294 150.40065908 80.90135294 149.36865091 80.90720719 C147.11010844 80.91752171 144.85182092 80.91354808 142.59326172 80.90957642 C140.9735643 80.91392371 139.35386894 80.91910691 137.73417664 80.92506409 C133.33550173 80.9384623 128.9369127 80.93903193 124.53822136 80.93650079 C120.8675608 80.93543181 117.19691768 80.94031246 113.52626085 80.94510621 C104.86840546 80.95620385 96.21059345 80.9566371 87.55273438 80.95059204 C78.61630739 80.94454854 69.68003771 80.95687221 60.74363756 80.97816211 C53.07390859 80.9957635 45.40422976 81.00178186 37.73448133 80.99852437 C33.15239657 80.99670931 28.57042405 80.99936994 23.98835754 81.01323891 C19.68077729 81.02578919 15.37344283 81.02389985 11.06586647 81.01082802 C9.48401113 81.0084567 7.90213864 81.01121673 6.32030296 81.01945114 C4.16275156 81.0298737 2.00603183 81.02185517 -0.15148926 81.00914001 C-1.35937355 81.00930776 -2.56725784 81.0094755 -3.81174469 81.00964832 C-7.15224359 80.60028504 -8.52457609 80.0106578 -10.86962891 77.63491821 C-11.99937071 74.24569282 -12.02432534 71.61374262 -12.0625 68.03970337 C-12.07067749 67.37430038 -12.07885498 66.7088974 -12.08728027 66.02333069 C-12.11207244 63.82355642 -12.12863268 61.62384633 -12.14306641 59.42398071 C-12.14839008 58.67172588 -12.15371376 57.91947105 -12.15919876 57.14442062 C-12.1859012 53.16404999 -12.20528688 49.18371043 -12.21972656 45.20327759 C-12.23307571 41.91100338 -12.260949 38.61934755 -12.30175781 35.32730103 C-12.35106855 31.34912679 -12.37584499 27.37151414 -12.38295364 23.39304733 C-12.38966551 21.87876629 -12.40488619 20.36449776 -12.42884445 18.85039139 C-12.46049831 16.72923795 -12.46053458 14.61025012 -12.453125 12.48892212 C-12.46121185 11.2832962 -12.46929871 10.07767029 -12.47763062 8.83551025 C-11.15299463 1.86247162 -6.58301524 0.01023037 0 0 Z " fill="#116FFF" transform="translate(179.86962890625,55.365081787109375)"/>
<path d="M0 0 C0.67861399 -0.00779995 1.35722797 -0.01559991 2.05640602 -0.02363622 C4.32380555 -0.04353461 6.58952249 -0.02780245 8.85693359 -0.01205444 C10.48501565 -0.01883161 12.11309003 -0.02773531 13.7411499 -0.03860474 C18.15859533 -0.06139316 22.57545669 -0.05256381 26.99291229 -0.03670931 C31.61638459 -0.02404788 36.23980698 -0.03579109 40.86328125 -0.04364014 C48.62753272 -0.052736 56.39154636 -0.04075048 64.15576172 -0.01693726 C73.13151674 0.01027396 82.10670389 0.00145975 91.08244514 -0.02606928 C98.78961611 -0.04876118 106.49661616 -0.05196006 114.20380974 -0.03887594 C118.80664249 -0.03108185 123.40920834 -0.03003861 128.01202393 -0.04655838 C132.33950626 -0.06100514 136.66625669 -0.05097818 140.99365997 -0.0220871 C142.58153315 -0.0154773 144.16946795 -0.01737223 145.75731659 -0.02840042 C147.92595565 -0.04207344 150.09225232 -0.02492451 152.26074219 0 C153.47378021 0.00188513 154.68681824 0.00377026 155.93661499 0.00571251 C160.03356264 0.81285706 161.52845705 2.44479275 164.13037109 5.63491821 C164.75183105 7.65190125 164.75183105 7.65190125 164.74560547 9.62734985 C164.7595636 10.74860008 164.7595636 10.74860008 164.77380371 11.89250183 C164.74921082 13.08177528 164.74921082 13.08177528 164.72412109 14.29507446 C164.72416138 15.12196274 164.72420166 15.94885101 164.72424316 16.80079651 C164.71889717 18.54318878 164.70135364 20.28558119 164.67236328 22.02774048 C164.6304489 24.69247155 164.63130172 27.35467813 164.63818359 30.01968384 C164.62769227 31.71566491 164.61475446 33.41163299 164.59912109 35.10757446 C164.59891968 35.90244766 164.59871826 36.69732086 164.59851074 37.51628113 C164.52878162 40.7781699 164.36038281 43.21143049 162.78857422 46.1053772 C159.4544147 49.180835 155.83971005 48.76476077 151.53248596 48.77536011 C150.85895881 48.77833123 150.18543166 48.78130235 149.4914946 48.78436351 C147.22991291 48.79304963 144.96838416 48.79455866 142.70678711 48.79605103 C141.08723843 48.80067918 139.46769084 48.80570383 137.84814453 48.81109619 C133.44530187 48.82422046 129.04247446 48.83066493 124.6396153 48.83510685 C121.89022888 48.83803687 119.14084664 48.84214149 116.39146233 48.84661102 C107.79295959 48.86028457 99.19446638 48.86995254 90.59595352 48.87381291 C80.66290468 48.87829675 70.72999322 48.89586033 60.79698616 48.92481351 C53.12303845 48.9464074 45.44912946 48.95651593 37.77515167 48.95785403 C33.18968835 48.95890349 28.6043542 48.96484142 24.01892281 48.98267365 C19.70726624 48.99911528 15.39583653 49.00132896 11.08415985 48.99253464 C9.50068747 48.99176222 7.91720309 48.99613382 6.33376122 49.00599289 C4.17398179 49.01865321 2.01501307 49.01286873 -0.14476013 49.00241089 C-1.35394324 49.00387745 -2.56312635 49.00534401 -3.80895138 49.00685501 C-7.15261909 48.60052894 -8.52332417 48.01313576 -10.86962891 45.63491821 C-12.82784845 39.76025958 -12.17669177 33.0395965 -12.21972656 26.87515259 C-12.23629532 25.13510777 -12.2635978 23.39513126 -12.30175781 21.65542603 C-12.35659772 19.14042035 -12.37840751 16.62700414 -12.39306641 14.11148071 C-12.41573578 13.33736847 -12.43840515 12.56325623 -12.46176147 11.76568604 C-12.44690688 7.95718919 -12.12659986 5.96481542 -9.76251221 2.92981911 C-6.21275675 0.11382685 -4.48833596 0.00697512 0 0 Z " fill="#126FFF" transform="translate(43.86962890625,431.3650817871094)"/>
<path d="M0 0 C47.52 0 95.04 0 144 0 C144 15.84 144 31.68 144 48 C96.48 48 48.96 48 0 48 C0 32.16 0 16.32 0 0 Z " fill="#93C0FF" transform="translate(184,72)"/>
<path d="M0 0 C0.67544861 -0.0087616 1.35089722 -0.01752319 2.04681396 -0.02655029 C4.26885132 -0.04847103 6.48888166 -0.03402082 8.7109375 -0.01708984 C10.26123434 -0.02046017 11.81152859 -0.02531459 13.36181641 -0.03158569 C16.6067019 -0.03894698 19.85089795 -0.0282766 23.09570312 -0.00488281 C27.2489408 0.02360583 31.40056301 0.00719768 35.55374146 -0.02274513 C38.75378527 -0.04083902 41.95344793 -0.03505079 45.15350342 -0.02210617 C46.68447055 -0.01877787 48.21547262 -0.02283903 49.74639893 -0.03450394 C51.8891524 -0.04724882 54.02931399 -0.02779228 56.171875 0 C57.3892334 0.00397797 58.6065918 0.00795593 59.86083984 0.01205444 C64.097547 0.8461261 65.5566066 2.17861333 68.0859375 5.64697266 C68.70066833 8.84083557 68.70066833 8.84083557 68.68530273 12.48510742 C68.68924545 13.15240875 68.69318817 13.81971008 68.69725037 14.50723267 C68.70393555 16.70172464 68.67485822 18.89411138 68.64453125 21.08837891 C68.64027829 22.61864316 68.63795226 24.14891387 68.63746643 25.67918396 C68.63130953 28.88122947 68.60865087 32.0825731 68.57299805 35.28442383 C68.52768773 39.38577142 68.51296952 43.48648465 68.50926113 47.58805943 C68.5048297 50.74596901 68.48952151 53.9037459 68.4703846 57.06159782 C68.46151527 58.57384083 68.45477903 60.08609791 68.45022392 61.59836006 C68.44116635 63.71189211 68.41876439 65.82485512 68.39233398 67.93823242 C68.37637428 69.7409536 68.37637428 69.7409536 68.36009216 71.58009338 C68.09285637 74.56957353 67.83055873 76.2292886 66.0859375 78.64697266 C62.7138779 81.08561887 59.42428913 80.90609369 55.36132812 80.92163086 C54.69417282 80.92674179 54.02701752 80.93185272 53.33964539 80.93711853 C51.14040082 80.95098751 48.94147052 80.95006009 46.7421875 80.94775391 C45.21048873 80.95164185 43.67879103 80.95597673 42.14709473 80.96073914 C38.93933616 80.96819518 35.73168767 80.96791421 32.52392578 80.96264648 C28.41466331 80.95684747 24.30585094 80.97379588 20.1966629 80.99699116 C17.03449879 81.01172579 13.87244321 81.01260068 10.71025085 81.00948143 C9.19519661 81.00999461 7.68013628 81.01523182 6.16511536 81.02529335 C4.04662834 81.03763801 1.92901995 81.03087937 -0.18945312 81.01928711 C-1.39428345 81.01991653 -2.59911377 81.02054596 -3.8404541 81.02119446 C-7.19148789 80.61319521 -8.56271358 80.02984797 -10.9140625 77.64697266 C-12.0438043 74.25774726 -12.06875893 71.62579707 -12.10693359 68.05175781 C-12.11511108 67.38635483 -12.12328857 66.72095184 -12.13171387 66.03538513 C-12.15650603 63.83561086 -12.17306627 61.63590077 -12.1875 59.43603516 C-12.19282368 58.68378033 -12.19814735 57.9315255 -12.20363235 57.15647507 C-12.23033479 53.17610443 -12.24972047 49.19576487 -12.26416016 45.21533203 C-12.2775093 41.92305783 -12.3053826 38.63140199 -12.34619141 35.33935547 C-12.39550215 31.36118124 -12.42027859 27.38356858 -12.42738724 23.40510178 C-12.4340991 21.89082074 -12.44931979 20.37655221 -12.47327805 18.86244583 C-12.50493191 16.7412924 -12.50496818 14.62230456 -12.49755859 12.50097656 C-12.50564545 11.29535065 -12.5137323 10.08972473 -12.52206421 8.8475647 C-11.16938589 1.72690799 -6.7111054 0.0219299 0 0 Z " fill="#116FFF" transform="translate(411.9140625,351.35302734375)"/>
<path d="M0 0 C0.67544861 -0.0087616 1.35089722 -0.01752319 2.04681396 -0.02655029 C4.26885132 -0.04847103 6.48888166 -0.03402082 8.7109375 -0.01708984 C10.26123434 -0.02046017 11.81152859 -0.02531459 13.36181641 -0.03158569 C16.6067019 -0.03894698 19.85089795 -0.0282766 23.09570312 -0.00488281 C27.2489408 0.02360583 31.40056301 0.00719768 35.55374146 -0.02274513 C38.75378527 -0.04083902 41.95344793 -0.03505079 45.15350342 -0.02210617 C46.68447055 -0.01877787 48.21547262 -0.02283903 49.74639893 -0.03450394 C51.8891524 -0.04724882 54.02931399 -0.02779228 56.171875 0 C57.3892334 0.00397797 58.6065918 0.00795593 59.86083984 0.01205444 C64.097547 0.8461261 65.5566066 2.17861333 68.0859375 5.64697266 C68.70066833 8.84083557 68.70066833 8.84083557 68.68530273 12.48510742 C68.68924545 13.15240875 68.69318817 13.81971008 68.69725037 14.50723267 C68.70393555 16.70172464 68.67485822 18.89411138 68.64453125 21.08837891 C68.64027829 22.61864316 68.63795226 24.14891387 68.63746643 25.67918396 C68.63130953 28.88122947 68.60865087 32.0825731 68.57299805 35.28442383 C68.52768773 39.38577142 68.51296952 43.48648465 68.50926113 47.58805943 C68.5048297 50.74596901 68.48952151 53.9037459 68.4703846 57.06159782 C68.46151527 58.57384083 68.45477903 60.08609791 68.45022392 61.59836006 C68.44116635 63.71189211 68.41876439 65.82485512 68.39233398 67.93823242 C68.37637428 69.7409536 68.37637428 69.7409536 68.36009216 71.58009338 C68.09285637 74.56957353 67.83055873 76.2292886 66.0859375 78.64697266 C62.7138779 81.08561887 59.42428913 80.90609369 55.36132812 80.92163086 C54.69417282 80.92674179 54.02701752 80.93185272 53.33964539 80.93711853 C51.14040082 80.95098751 48.94147052 80.95006009 46.7421875 80.94775391 C45.21048873 80.95164185 43.67879103 80.95597673 42.14709473 80.96073914 C38.93933616 80.96819518 35.73168767 80.96791421 32.52392578 80.96264648 C28.41466331 80.95684747 24.30585094 80.97379588 20.1966629 80.99699116 C17.03449879 81.01172579 13.87244321 81.01260068 10.71025085 81.00948143 C9.19519661 81.00999461 7.68013628 81.01523182 6.16511536 81.02529335 C4.04662834 81.03763801 1.92901995 81.03087937 -0.18945312 81.01928711 C-1.39428345 81.01991653 -2.59911377 81.02054596 -3.8404541 81.02119446 C-7.19148789 80.61319521 -8.56271358 80.02984797 -10.9140625 77.64697266 C-12.0438043 74.25774726 -12.06875893 71.62579707 -12.10693359 68.05175781 C-12.11511108 67.38635483 -12.12328857 66.72095184 -12.13171387 66.03538513 C-12.15650603 63.83561086 -12.17306627 61.63590077 -12.1875 59.43603516 C-12.19282368 58.68378033 -12.19814735 57.9315255 -12.20363235 57.15647507 C-12.23033479 53.17610443 -12.24972047 49.19576487 -12.26416016 45.21533203 C-12.2775093 41.92305783 -12.3053826 38.63140199 -12.34619141 35.33935547 C-12.39550215 31.36118124 -12.42027859 27.38356858 -12.42738724 23.40510178 C-12.4340991 21.89082074 -12.44931979 20.37655221 -12.47327805 18.86244583 C-12.50493191 16.7412924 -12.50496818 14.62230456 -12.49755859 12.50097656 C-12.50564545 11.29535065 -12.5137323 10.08972473 -12.52206421 8.8475647 C-11.16938589 1.72690799 -6.7111054 0.0219299 0 0 Z " fill="#116FFF" transform="translate(315.9140625,351.35302734375)"/>
<path d="M0 0 C0.67544861 -0.0087616 1.35089722 -0.01752319 2.04681396 -0.02655029 C4.26885132 -0.04847103 6.48888166 -0.03402082 8.7109375 -0.01708984 C10.26123434 -0.02046017 11.81152859 -0.02531459 13.36181641 -0.03158569 C16.6067019 -0.03894698 19.85089795 -0.0282766 23.09570312 -0.00488281 C27.2489408 0.02360583 31.40056301 0.00719768 35.55374146 -0.02274513 C38.75378527 -0.04083902 41.95344793 -0.03505079 45.15350342 -0.02210617 C46.68447055 -0.01877787 48.21547262 -0.02283903 49.74639893 -0.03450394 C51.8891524 -0.04724882 54.02931399 -0.02779228 56.171875 0 C57.3892334 0.00397797 58.6065918 0.00795593 59.86083984 0.01205444 C64.05544026 0.83783663 65.53567954 2.2611136 68.0859375 5.64697266 C68.70066833 8.2334137 68.70066833 8.2334137 68.68530273 11.01635742 C68.69138046 12.06416885 68.69745819 13.11198029 68.70372009 14.19154358 C68.68418777 15.31249924 68.66465546 16.4334549 68.64453125 17.58837891 C68.64103416 19.32812233 68.64103416 19.32812233 68.63746643 21.10301208 C68.62773441 23.55157846 68.60596019 26.00012249 68.57299805 28.44848633 C68.52357245 32.19923171 68.51151557 35.94866532 68.50585938 39.69970703 C68.49177386 42.0792783 68.47556963 44.45883816 68.45703125 46.83837891 C68.4489872 48.52284874 68.4489872 48.52284874 68.44078064 50.24134827 C68.42479324 51.28600754 68.40880585 52.33066681 68.39233398 53.40698242 C68.37637428 54.78334618 68.37637428 54.78334618 68.36009216 56.18751526 C68.06223435 58.85961497 67.60386455 60.43023275 66.0859375 62.64697266 C62.7138779 65.08561887 59.42428913 64.90609369 55.36132812 64.92163086 C54.69417282 64.92674179 54.02701752 64.93185272 53.33964539 64.93711853 C51.14040082 64.95098751 48.94147052 64.95006009 46.7421875 64.94775391 C45.21048873 64.95164185 43.67879103 64.95597673 42.14709473 64.96073914 C38.93933616 64.96819518 35.73168767 64.96791421 32.52392578 64.96264648 C28.41466331 64.95684747 24.30585094 64.97379588 20.1966629 64.99699116 C17.03449879 65.01172579 13.87244321 65.01260068 10.71025085 65.00948143 C9.19519661 65.00999461 7.68013628 65.01523182 6.16511536 65.02529335 C4.04662834 65.03763801 1.92901995 65.03087937 -0.18945312 65.01928711 C-1.39428345 65.01991653 -2.59911377 65.02054596 -3.8404541 65.02119446 C-7.19148789 64.61319521 -8.56271358 64.02984797 -10.9140625 61.64697266 C-11.90656087 58.66947756 -12.06342606 56.63223331 -12.10693359 53.52050781 C-12.13102798 51.95340561 -12.13102798 51.95340561 -12.15560913 50.35464478 C-12.20008593 45.58686002 -12.24110554 40.8192131 -12.26416016 36.05126953 C-12.28073874 33.53522505 -12.30805332 31.01922802 -12.34619141 28.50341797 C-12.40088466 24.87654175 -12.42282172 21.2507679 -12.4375 17.62353516 C-12.46016937 16.49944244 -12.48283875 15.37534973 -12.50619507 14.2171936 C-12.50334503 13.16615448 -12.500495 12.11511536 -12.49755859 11.03222656 C-12.50564545 10.11083893 -12.5137323 9.18945129 -12.52206421 8.24014282 C-10.95034602 1.53665391 -6.28379315 0.02053357 0 0 Z " fill="#126FFF" transform="translate(43.9140625,351.35302734375)"/>
<path d="M0 0 C0.67861399 -0.00779995 1.35722797 -0.01559991 2.05640602 -0.02363622 C4.32380555 -0.04353461 6.58952249 -0.02780245 8.85693359 -0.01205444 C10.48501565 -0.01883161 12.11309003 -0.02773531 13.7411499 -0.03860474 C18.15859533 -0.06139316 22.57545669 -0.05256381 26.99291229 -0.03670931 C31.61638459 -0.02404788 36.23980698 -0.03579109 40.86328125 -0.04364014 C48.62753272 -0.052736 56.39154636 -0.04075048 64.15576172 -0.01693726 C73.13151674 0.01027396 82.10670389 0.00145975 91.08244514 -0.02606928 C98.78961611 -0.04876118 106.49661616 -0.05196006 114.20380974 -0.03887594 C118.80664249 -0.03108185 123.40920834 -0.03003861 128.01202393 -0.04655838 C132.33950626 -0.06100514 136.66625669 -0.05097818 140.99365997 -0.0220871 C142.58153315 -0.0154773 144.16946795 -0.01737223 145.75731659 -0.02840042 C147.92595565 -0.04207344 150.09225232 -0.02492451 152.26074219 0 C153.47378021 0.00188513 154.68681824 0.00377026 155.93661499 0.00571251 C160.05492771 0.81706622 161.55247119 2.38871047 164.13037109 5.63491821 C164.69287109 8.69741821 164.69287109 8.69741821 164.13037109 11.63491821 C162.26327199 13.93767377 160.77389368 15.31315692 158.13037109 16.63491821 C155.97535605 16.7400334 153.81702379 16.77886946 151.6594696 16.78881836 C150.65151886 16.79539174 150.65151886 16.79539174 149.62320548 16.80209792 C147.36086142 16.8155031 145.09855632 16.82166859 142.83618164 16.82778931 C141.21840233 16.83568888 139.60062479 16.84395774 137.98284912 16.85256958 C132.66094652 16.87880489 127.33903598 16.89409797 122.01708984 16.90835571 C120.18648587 16.91371463 118.35588195 16.91909214 116.52527809 16.92448807 C108.91192018 16.94611834 101.2985644 16.96485605 93.68518353 16.97611046 C82.76635372 16.99235617 71.84787943 17.02554723 60.92918366 17.08251131 C53.25609251 17.12118099 45.58309656 17.14073957 37.9099105 17.14603102 C33.3248516 17.14968837 28.74017173 17.16175007 24.15521812 17.19413376 C19.84182331 17.22416257 15.52903789 17.23054501 11.21556091 17.21875 C9.63249251 17.21852883 8.04939625 17.2268697 6.46642494 17.24440384 C4.30428855 17.2670495 2.14437067 17.25882555 -0.01777649 17.24291992 C-1.22733663 17.24623007 -2.43689676 17.24954021 -3.68311024 17.25295067 C-7.80088427 16.45429914 -9.28941515 14.8735982 -11.86962891 11.63491821 C-12.49462891 8.63491821 -12.49462891 8.63491821 -11.86962891 5.63491821 C-8.18149568 1.00608254 -5.86051846 0.00910757 0 0 Z " fill="#1270FF" transform="translate(179.86962890625,167.36508178710938)"/>
<path d="M0 0 C0.67861399 -0.00779995 1.35722797 -0.01559991 2.05640602 -0.02363622 C4.32380555 -0.04353461 6.58952249 -0.02780245 8.85693359 -0.01205444 C10.48501565 -0.01883161 12.11309003 -0.02773531 13.7411499 -0.03860474 C18.15859533 -0.06139316 22.57545669 -0.05256381 26.99291229 -0.03670931 C31.61638459 -0.02404788 36.23980698 -0.03579109 40.86328125 -0.04364014 C48.62753272 -0.052736 56.39154636 -0.04075048 64.15576172 -0.01693726 C73.13151674 0.01027396 82.10670389 0.00145975 91.08244514 -0.02606928 C98.78961611 -0.04876118 106.49661616 -0.05196006 114.20380974 -0.03887594 C118.80664249 -0.03108185 123.40920834 -0.03003861 128.01202393 -0.04655838 C132.33950626 -0.06100514 136.66625669 -0.05097818 140.99365997 -0.0220871 C142.58153315 -0.0154773 144.16946795 -0.01737223 145.75731659 -0.02840042 C147.92595565 -0.04207344 150.09225232 -0.02492451 152.26074219 0 C153.47378021 0.00188513 154.68681824 0.00377026 155.93661499 0.00571251 C160.05492771 0.81706622 161.55247119 2.38871047 164.13037109 5.63491821 C164.69287109 8.69741821 164.69287109 8.69741821 164.13037109 11.63491821 C162.26327199 13.93767377 160.77389368 15.31315692 158.13037109 16.63491821 C155.97535605 16.7400334 153.81702379 16.77886946 151.6594696 16.78881836 C150.65151886 16.79539174 150.65151886 16.79539174 149.62320548 16.80209792 C147.36086142 16.8155031 145.09855632 16.82166859 142.83618164 16.82778931 C141.21840233 16.83568888 139.60062479 16.84395774 137.98284912 16.85256958 C132.66094652 16.87880489 127.33903598 16.89409797 122.01708984 16.90835571 C120.18648587 16.91371463 118.35588195 16.91909214 116.52527809 16.92448807 C108.91192018 16.94611834 101.2985644 16.96485605 93.68518353 16.97611046 C82.76635372 16.99235617 71.84787943 17.02554723 60.92918366 17.08251131 C53.25609251 17.12118099 45.58309656 17.14073957 37.9099105 17.14603102 C33.3248516 17.14968837 28.74017173 17.16175007 24.15521812 17.19413376 C19.84182331 17.22416257 15.52903789 17.23054501 11.21556091 17.21875 C9.63249251 17.21852883 8.04939625 17.2268697 6.46642494 17.24440384 C4.30428855 17.2670495 2.14437067 17.25882555 -0.01777649 17.24291992 C-1.22733663 17.24623007 -2.43689676 17.24954021 -3.68311024 17.25295067 C-7.80088427 16.45429914 -9.28941515 14.8735982 -11.86962891 11.63491821 C-12.49462891 8.63491821 -12.49462891 8.63491821 -11.86962891 5.63491821 C-8.18149568 1.00608254 -5.86051846 0.00910757 0 0 Z " fill="#1270FF" transform="translate(179.86962890625,143.36508178710938)"/>
<path d="M0 0 C47.52 0 95.04 0 144 0 C144 5.28 144 10.56 144 16 C96.48 16 48.96 16 0 16 C0 10.72 0 5.44 0 0 Z " fill="#93C0FF" transform="translate(48,448)"/>
<path d="M0 0 C15.84 0 31.68 0 48 0 C48 15.84 48 31.68 48 48 C32.16 48 16.32 48 0 48 C0 32.16 0 16.32 0 0 Z " fill="#93C0FF" transform="translate(416,368)"/>
<path d="M0 0 C15.84 0 31.68 0 48 0 C48 15.84 48 31.68 48 48 C32.16 48 16.32 48 0 48 C0 32.16 0 16.32 0 0 Z " fill="#93C0FF" transform="translate(320,368)"/>
<path d="M0 0 C0.98756287 -0.0087616 1.97512573 -0.01752319 2.99261475 -0.02655029 C6.25333742 -0.04853646 9.51270131 -0.03399354 12.7734375 -0.01708984 C15.04118103 -0.02045818 17.3089228 -0.02531094 19.57666016 -0.03158569 C24.32797443 -0.038956 29.07881852 -0.02824584 33.83007812 -0.00488281 C39.92023137 0.02360437 46.00928293 0.00720135 52.09939575 -0.02274513 C56.78174133 -0.04081342 61.46382575 -0.03506208 66.1461792 -0.02210617 C68.39166392 -0.0187709 70.63717237 -0.02286346 72.88262939 -0.03450394 C76.02135008 -0.04720428 79.15828717 -0.02784536 82.296875 0 C83.22481873 -0.01012115 84.15276245 -0.02024231 85.10882568 -0.03067017 C89.59397066 0.04304151 91.56506354 0.21373338 95.26416016 2.96084595 C97.1484375 5.64697266 97.1484375 5.64697266 97.1484375 9.27197266 C96.20299991 12.46282452 95.78472303 13.74884708 93.1484375 15.64697266 C90.87576436 16.78330923 89.62438219 16.77723832 87.10049438 16.78741455 C85.83029701 16.79597977 85.83029701 16.79597977 84.53443909 16.80471802 C83.60348923 16.80583588 82.67253937 16.80695374 81.71337891 16.80810547 C80.7344014 16.81307037 79.75542389 16.81803528 78.7467804 16.82315063 C75.49784653 16.83779413 72.24896149 16.84457772 69 16.85009766 C66.74799599 16.85584708 64.495992 16.86160483 62.24398804 16.86737061 C57.51779959 16.87788667 52.79162819 16.88372545 48.06542969 16.88720703 C42.00339921 16.8926946 35.94159303 16.91672583 29.87963295 16.94517899 C25.22656593 16.9637833 20.57355319 16.96900978 15.92045212 16.97054291 C13.68529407 16.97357469 11.45013709 16.98162081 9.21501541 16.99472809 C6.09059732 17.01174312 2.96673051 17.00991939 -0.15771484 17.00341797 C-1.08461624 17.01263275 -2.01151764 17.02184753 -2.96650696 17.03134155 C-9.22678079 16.99044189 -9.22678079 16.99044189 -12.40835571 15.24139404 C-14.09370277 13.3794617 -14.57170612 12.25043997 -14.9140625 9.77197266 C-15.02878906 9.11455078 -15.14351562 8.45712891 -15.26171875 7.77978516 C-13.7288438 -0.19116457 -6.47772453 -0.07065305 0 0 Z " fill="#126FFF" transform="translate(214.8515625,87.35302734375)"/>
<path d="M0 0 C1.21264986 -0.00913666 1.21264986 -0.00913666 2.44979769 -0.01845789 C5.16211373 -0.03512361 7.87396215 -0.03030704 10.58631897 -0.0255127 C12.52951547 -0.03285093 14.47270761 -0.04143644 16.41589355 -0.05117798 C21.69685421 -0.07342791 26.97765899 -0.07632294 32.25866008 -0.07443047 C36.66489063 -0.07431093 41.07108796 -0.08286805 45.47730929 -0.09120798 C55.87076466 -0.11045438 66.26413972 -0.11332127 76.65760803 -0.10656738 C87.38568095 -0.09992446 98.11341023 -0.12279835 108.84141344 -0.15988111 C118.04746103 -0.19055034 127.25339792 -0.20194119 136.4594956 -0.1980443 C141.95996893 -0.19597403 147.46017486 -0.20149908 152.9605999 -0.22593689 C158.13256284 -0.24815567 163.30396596 -0.24636669 168.47593117 -0.22600937 C170.37504382 -0.22259076 172.27419379 -0.2277249 174.17325592 -0.24199295 C176.76435449 -0.26011849 179.35354029 -0.24748761 181.94458008 -0.22705078 C182.69769515 -0.23956863 183.45081023 -0.25208648 184.22674698 -0.26498365 C188.16676433 -0.19826938 189.89918127 0.28754735 193.04148197 2.74575043 C195.03578186 5.39440918 195.03578186 5.39440918 195.03578186 8.39440918 C126.39578186 8.39440918 57.75578186 8.39440918 -12.96421814 8.39440918 C-11.96421814 3.39440918 -11.96421814 3.39440918 -10.39948177 1.60655975 C-6.97018329 -0.10037089 -3.74685979 -0.02642894 0 0 Z " fill="#D4E7FF" transform="translate(300.96421813964844,311.6055908203125)"/>
<path d="M0 0 C1.21264986 -0.00913666 1.21264986 -0.00913666 2.44979769 -0.01845789 C5.16211373 -0.03512361 7.87396215 -0.03030704 10.58631897 -0.0255127 C12.52951547 -0.03285093 14.47270761 -0.04143644 16.41589355 -0.05117798 C21.69685421 -0.07342791 26.97765899 -0.07632294 32.25866008 -0.07443047 C36.66489063 -0.07431093 41.07108796 -0.08286805 45.47730929 -0.09120798 C55.87076466 -0.11045438 66.26413972 -0.11332127 76.65760803 -0.10656738 C87.38568095 -0.09992446 98.11341023 -0.12279835 108.84141344 -0.15988111 C118.04746103 -0.19055034 127.25339792 -0.20194119 136.4594956 -0.1980443 C141.95996893 -0.19597403 147.46017486 -0.20149908 152.9605999 -0.22593689 C158.13256284 -0.24815567 163.30396596 -0.24636669 168.47593117 -0.22600937 C170.37504382 -0.22259076 172.27419379 -0.2277249 174.17325592 -0.24199295 C176.76435449 -0.26011849 179.35354029 -0.24748761 181.94458008 -0.22705078 C182.69769515 -0.23956863 183.45081023 -0.25208648 184.22674698 -0.26498365 C188.16676433 -0.19826938 189.89918127 0.28754735 193.04148197 2.74575043 C195.03578186 5.39440918 195.03578186 5.39440918 195.03578186 8.39440918 C126.39578186 8.39440918 57.75578186 8.39440918 -12.96421814 8.39440918 C-11.96421814 3.39440918 -11.96421814 3.39440918 -10.39948177 1.60655975 C-6.97018329 -0.10037089 -3.74685979 -0.02642894 0 0 Z " fill="#D4E7FF" transform="translate(28.964218139648438,311.6055908203125)"/>
<path d="M0 0 C1.21264986 -0.00913666 1.21264986 -0.00913666 2.44979769 -0.01845789 C5.16211373 -0.03512361 7.87396215 -0.03030704 10.58631897 -0.0255127 C12.52951547 -0.03285093 14.47270761 -0.04143644 16.41589355 -0.05117798 C21.69685421 -0.07342791 26.97765899 -0.07632294 32.25866008 -0.07443047 C36.66489063 -0.07431093 41.07108796 -0.08286805 45.47730929 -0.09120798 C55.87076466 -0.11045438 66.26413972 -0.11332127 76.65760803 -0.10656738 C87.38568095 -0.09992446 98.11341023 -0.12279835 108.84141344 -0.15988111 C118.04746103 -0.19055034 127.25339792 -0.20194119 136.4594956 -0.1980443 C141.95996893 -0.19597403 147.46017486 -0.20149908 152.9605999 -0.22593689 C158.13256284 -0.24815567 163.30396596 -0.24636669 168.47593117 -0.22600937 C170.37504382 -0.22259076 172.27419379 -0.2277249 174.17325592 -0.24199295 C176.76435449 -0.26011849 179.35354029 -0.24748761 181.94458008 -0.22705078 C182.69769515 -0.23956863 183.45081023 -0.25208648 184.22674698 -0.26498365 C188.16676433 -0.19826938 189.89918127 0.28754735 193.04148197 2.74575043 C195.03578186 5.39440918 195.03578186 5.39440918 195.03578186 8.39440918 C126.39578186 8.39440918 57.75578186 8.39440918 -12.96421814 8.39440918 C-11.96421814 3.39440918 -11.96421814 3.39440918 -10.39948177 1.60655975 C-6.97018329 -0.10037089 -3.74685979 -0.02642894 0 0 Z " fill="#D4E7FF" transform="translate(164.96421813964844,15.6055908203125)"/>
<path d="M0 0 C15.84 0 31.68 0 48 0 C48 10.56 48 21.12 48 32 C32.16 32 16.32 32 0 32 C0 21.44 0 10.88 0 0 Z " fill="#93C0FF" transform="translate(48,368)"/>
<path d="M0 0 C0.67544861 -0.0087616 1.35089722 -0.01752319 2.04681396 -0.02655029 C4.26885132 -0.04847103 6.48888166 -0.03402082 8.7109375 -0.01708984 C10.26123434 -0.02046017 11.81152859 -0.02531459 13.36181641 -0.03158569 C16.6067019 -0.03894698 19.85089795 -0.0282766 23.09570312 -0.00488281 C27.2489408 0.02360583 31.40056301 0.00719768 35.55374146 -0.02274513 C38.75378527 -0.04083902 41.95344793 -0.03505079 45.15350342 -0.02210617 C46.68447055 -0.01877787 48.21547262 -0.02283903 49.74639893 -0.03450394 C51.8891524 -0.04724882 54.02931399 -0.02779228 56.171875 0 C57.3892334 0.00397797 58.6065918 0.00795593 59.86083984 0.01205444 C63.99934999 0.82679426 65.49667935 2.38308411 68.0859375 5.64697266 C68.6484375 8.70947266 68.6484375 8.70947266 68.0859375 11.64697266 C66.2188384 13.94972822 64.72946009 15.32521136 62.0859375 16.64697266 C59.92761535 16.76449657 57.76564467 16.81680016 55.60424805 16.83984375 C54.93899109 16.84802124 54.27373413 16.85619873 53.58831787 16.86462402 C51.38310649 16.8894696 49.17795946 16.90599207 46.97265625 16.92041016 C46.21948435 16.92573383 45.46631245 16.93105751 44.69031715 16.93654251 C40.70346723 16.96327098 36.71664858 16.98264644 32.72973633 16.99707031 C28.61359571 17.01371431 24.49825638 17.05848957 20.38241863 17.10944176 C17.21593822 17.14311386 14.04964799 17.1546476 10.88300514 17.16029739 C9.36593314 17.1670105 7.84887368 17.18223441 6.33197594 17.2061882 C4.20592536 17.2378446 2.08203535 17.23787764 -0.04418945 17.23046875 C-1.85715263 17.24259903 -1.85715263 17.24259903 -3.70674133 17.25497437 C-7.8455459 16.4703943 -9.32485467 14.90055675 -11.9140625 11.64697266 C-12.5390625 8.64697266 -12.5390625 8.64697266 -11.9140625 5.64697266 C-8.21836279 1.00384843 -5.87469163 0.01919675 0 0 Z " fill="#1370FF" transform="translate(411.9140625,463.35302734375)"/>
<path d="M0 0 C0.67544861 -0.0087616 1.35089722 -0.01752319 2.04681396 -0.02655029 C4.26885132 -0.04847103 6.48888166 -0.03402082 8.7109375 -0.01708984 C10.26123434 -0.02046017 11.81152859 -0.02531459 13.36181641 -0.03158569 C16.6067019 -0.03894698 19.85089795 -0.0282766 23.09570312 -0.00488281 C27.2489408 0.02360583 31.40056301 0.00719768 35.55374146 -0.02274513 C38.75378527 -0.04083902 41.95344793 -0.03505079 45.15350342 -0.02210617 C46.68447055 -0.01877787 48.21547262 -0.02283903 49.74639893 -0.03450394 C51.8891524 -0.04724882 54.02931399 -0.02779228 56.171875 0 C57.3892334 0.00397797 58.6065918 0.00795593 59.86083984 0.01205444 C63.99934999 0.82679426 65.49667935 2.38308411 68.0859375 5.64697266 C68.6484375 8.70947266 68.6484375 8.70947266 68.0859375 11.64697266 C66.2188384 13.94972822 64.72946009 15.32521136 62.0859375 16.64697266 C59.92761535 16.76449657 57.76564467 16.81680016 55.60424805 16.83984375 C54.93899109 16.84802124 54.27373413 16.85619873 53.58831787 16.86462402 C51.38310649 16.8894696 49.17795946 16.90599207 46.97265625 16.92041016 C46.21948435 16.92573383 45.46631245 16.93105751 44.69031715 16.93654251 C40.70346723 16.96327098 36.71664858 16.98264644 32.72973633 16.99707031 C28.61359571 17.01371431 24.49825638 17.05848957 20.38241863 17.10944176 C17.21593822 17.14311386 14.04964799 17.1546476 10.88300514 17.16029739 C9.36593314 17.1670105 7.84887368 17.18223441 6.33197594 17.2061882 C4.20592536 17.2378446 2.08203535 17.23787764 -0.04418945 17.23046875 C-1.85715263 17.24259903 -1.85715263 17.24259903 -3.70674133 17.25497437 C-7.8455459 16.4703943 -9.32485467 14.90055675 -11.9140625 11.64697266 C-12.5390625 8.64697266 -12.5390625 8.64697266 -11.9140625 5.64697266 C-8.21836279 1.00384843 -5.87469163 0.01919675 0 0 Z " fill="#1370FF" transform="translate(315.9140625,463.35302734375)"/>
<path d="M0 0 C0.67544861 -0.0087616 1.35089722 -0.01752319 2.04681396 -0.02655029 C4.26885132 -0.04847103 6.48888166 -0.03402082 8.7109375 -0.01708984 C10.26123434 -0.02046017 11.81152859 -0.02531459 13.36181641 -0.03158569 C16.6067019 -0.03894698 19.85089795 -0.0282766 23.09570312 -0.00488281 C27.2489408 0.02360583 31.40056301 0.00719768 35.55374146 -0.02274513 C38.75378527 -0.04083902 41.95344793 -0.03505079 45.15350342 -0.02210617 C46.68447055 -0.01877787 48.21547262 -0.02283903 49.74639893 -0.03450394 C51.8891524 -0.04724882 54.02931399 -0.02779228 56.171875 0 C57.3892334 0.00397797 58.6065918 0.00795593 59.86083984 0.01205444 C63.99934999 0.82679426 65.49667935 2.38308411 68.0859375 5.64697266 C68.6484375 8.70947266 68.6484375 8.70947266 68.0859375 11.64697266 C66.2188384 13.94972822 64.72946009 15.32521136 62.0859375 16.64697266 C59.92761535 16.76449657 57.76564467 16.81680016 55.60424805 16.83984375 C54.93899109 16.84802124 54.27373413 16.85619873 53.58831787 16.86462402 C51.38310649 16.8894696 49.17795946 16.90599207 46.97265625 16.92041016 C46.21948435 16.92573383 45.46631245 16.93105751 44.69031715 16.93654251 C40.70346723 16.96327098 36.71664858 16.98264644 32.72973633 16.99707031 C28.61359571 17.01371431 24.49825638 17.05848957 20.38241863 17.10944176 C17.21593822 17.14311386 14.04964799 17.1546476 10.88300514 17.16029739 C9.36593314 17.1670105 7.84887368 17.18223441 6.33197594 17.2061882 C4.20592536 17.2378446 2.08203535 17.23787764 -0.04418945 17.23046875 C-1.85715263 17.24259903 -1.85715263 17.24259903 -3.70674133 17.25497437 C-7.8455459 16.4703943 -9.32485467 14.90055675 -11.9140625 11.64697266 C-12.5390625 8.64697266 -12.5390625 8.64697266 -11.9140625 5.64697266 C-8.21836279 1.00384843 -5.87469163 0.01919675 0 0 Z " fill="#1370FF" transform="translate(411.9140625,439.35302734375)"/>
<path d="M0 0 C0.67544861 -0.0087616 1.35089722 -0.01752319 2.04681396 -0.02655029 C4.26885132 -0.04847103 6.48888166 -0.03402082 8.7109375 -0.01708984 C10.26123434 -0.02046017 11.81152859 -0.02531459 13.36181641 -0.03158569 C16.6067019 -0.03894698 19.85089795 -0.0282766 23.09570312 -0.00488281 C27.2489408 0.02360583 31.40056301 0.00719768 35.55374146 -0.02274513 C38.75378527 -0.04083902 41.95344793 -0.03505079 45.15350342 -0.02210617 C46.68447055 -0.01877787 48.21547262 -0.02283903 49.74639893 -0.03450394 C51.8891524 -0.04724882 54.02931399 -0.02779228 56.171875 0 C57.3892334 0.00397797 58.6065918 0.00795593 59.86083984 0.01205444 C63.99934999 0.82679426 65.49667935 2.38308411 68.0859375 5.64697266 C68.6484375 8.70947266 68.6484375 8.70947266 68.0859375 11.64697266 C66.2188384 13.94972822 64.72946009 15.32521136 62.0859375 16.64697266 C59.92761535 16.76449657 57.76564467 16.81680016 55.60424805 16.83984375 C54.93899109 16.84802124 54.27373413 16.85619873 53.58831787 16.86462402 C51.38310649 16.8894696 49.17795946 16.90599207 46.97265625 16.92041016 C46.21948435 16.92573383 45.46631245 16.93105751 44.69031715 16.93654251 C40.70346723 16.96327098 36.71664858 16.98264644 32.72973633 16.99707031 C28.61359571 17.01371431 24.49825638 17.05848957 20.38241863 17.10944176 C17.21593822 17.14311386 14.04964799 17.1546476 10.88300514 17.16029739 C9.36593314 17.1670105 7.84887368 17.18223441 6.33197594 17.2061882 C4.20592536 17.2378446 2.08203535 17.23787764 -0.04418945 17.23046875 C-1.85715263 17.24259903 -1.85715263 17.24259903 -3.70674133 17.25497437 C-7.8455459 16.4703943 -9.32485467 14.90055675 -11.9140625 11.64697266 C-12.5390625 8.64697266 -12.5390625 8.64697266 -11.9140625 5.64697266 C-8.21836279 1.00384843 -5.87469163 0.01919675 0 0 Z " fill="#1370FF" transform="translate(315.9140625,439.35302734375)"/>
<path d="M0 0 C0.67544861 -0.0087616 1.35089722 -0.01752319 2.04681396 -0.02655029 C4.26885132 -0.04847103 6.48888166 -0.03402082 8.7109375 -0.01708984 C10.26123434 -0.02046017 11.81152859 -0.02531459 13.36181641 -0.03158569 C16.6067019 -0.03894698 19.85089795 -0.0282766 23.09570312 -0.00488281 C27.2489408 0.02360583 31.40056301 0.00719768 35.55374146 -0.02274513 C38.75378527 -0.04083902 41.95344793 -0.03505079 45.15350342 -0.02210617 C46.68447055 -0.01877787 48.21547262 -0.02283903 49.74639893 -0.03450394 C51.8891524 -0.04724882 54.02931399 -0.02779228 56.171875 0 C57.3892334 0.00397797 58.6065918 0.00795593 59.86083984 0.01205444 C63.99928073 0.82678062 65.49951776 2.38059496 68.0859375 5.64697266 C68.65803974 9.15109885 68.52634448 10.8710175 66.7734375 13.95947266 C63.50415561 17.22875455 59.85146988 16.78828074 55.47485352 16.82397461 C54.80784424 16.83054581 54.14083496 16.837117 53.45361328 16.84388733 C51.24902225 16.86357923 49.0444991 16.87527161 46.83984375 16.88525391 C46.08634077 16.88932943 45.33283779 16.89340496 44.55650139 16.89760399 C40.57079214 16.91844387 36.58511714 16.93275644 32.59936523 16.94213867 C28.48215896 16.953219 24.36549078 16.98764282 20.24847507 17.02731037 C17.08203621 17.0534393 13.91572657 17.06182698 10.74918938 17.06542015 C9.23131601 17.07029319 7.71344869 17.0819277 6.19568062 17.10045815 C4.07215578 17.12477973 1.95003718 17.12389887 -0.17358398 17.11694336 C-1.98535378 17.12574272 -1.98535378 17.12574272 -3.83372498 17.13471985 C-7.5419042 16.54755887 -8.6814073 15.61294684 -10.9140625 12.64697266 C-11.9765625 9.20947266 -11.9765625 9.20947266 -11.9140625 5.64697266 C-8.29091648 0.95627729 -5.84287745 0.01909279 0 0 Z " fill="#1470FF" transform="translate(139.9140625,399.35302734375)"/>
<path d="M0 0 C0.67544861 -0.0087616 1.35089722 -0.01752319 2.04681396 -0.02655029 C4.26885132 -0.04847103 6.48888166 -0.03402082 8.7109375 -0.01708984 C10.26123434 -0.02046017 11.81152859 -0.02531459 13.36181641 -0.03158569 C16.6067019 -0.03894698 19.85089795 -0.0282766 23.09570312 -0.00488281 C27.2489408 0.02360583 31.40056301 0.00719768 35.55374146 -0.02274513 C38.75378527 -0.04083902 41.95344793 -0.03505079 45.15350342 -0.02210617 C46.68447055 -0.01877787 48.21547262 -0.02283903 49.74639893 -0.03450394 C51.8891524 -0.04724882 54.02931399 -0.02779228 56.171875 0 C57.3892334 0.00397797 58.6065918 0.00795593 59.86083984 0.01205444 C63.99928073 0.82678062 65.49951776 2.38059496 68.0859375 5.64697266 C68.65803974 9.15109885 68.52634448 10.8710175 66.7734375 13.95947266 C63.50415561 17.22875455 59.85146988 16.78828074 55.47485352 16.82397461 C54.80784424 16.83054581 54.14083496 16.837117 53.45361328 16.84388733 C51.24902225 16.86357923 49.0444991 16.87527161 46.83984375 16.88525391 C46.08634077 16.88932943 45.33283779 16.89340496 44.55650139 16.89760399 C40.57079214 16.91844387 36.58511714 16.93275644 32.59936523 16.94213867 C28.48215896 16.953219 24.36549078 16.98764282 20.24847507 17.02731037 C17.08203621 17.0534393 13.91572657 17.06182698 10.74918938 17.06542015 C9.23131601 17.07029319 7.71344869 17.0819277 6.19568062 17.10045815 C4.07215578 17.12477973 1.95003718 17.12389887 -0.17358398 17.11694336 C-1.98535378 17.12574272 -1.98535378 17.12574272 -3.83372498 17.13471985 C-7.5419042 16.54755887 -8.6814073 15.61294684 -10.9140625 12.64697266 C-11.9765625 9.20947266 -11.9765625 9.20947266 -11.9140625 5.64697266 C-8.29091648 0.95627729 -5.84287745 0.01909279 0 0 Z " fill="#1470FF" transform="translate(139.9140625,375.35302734375)"/>
<path d="M0 0 C0.67544861 -0.0087616 1.35089722 -0.01752319 2.04681396 -0.02655029 C4.26885132 -0.04847103 6.48888166 -0.03402082 8.7109375 -0.01708984 C10.26123434 -0.02046017 11.81152859 -0.02531459 13.36181641 -0.03158569 C16.6067019 -0.03894698 19.85089795 -0.0282766 23.09570312 -0.00488281 C27.2489408 0.02360583 31.40056301 0.00719768 35.55374146 -0.02274513 C38.75378527 -0.04083902 41.95344793 -0.03505079 45.15350342 -0.02210617 C46.68447055 -0.01877787 48.21547262 -0.02283903 49.74639893 -0.03450394 C51.8891524 -0.04724882 54.02931399 -0.02779228 56.171875 0 C57.3892334 0.00397797 58.6065918 0.00795593 59.86083984 0.01205444 C63.99928073 0.82678062 65.49951776 2.38059496 68.0859375 5.64697266 C68.65803974 9.15109885 68.52634448 10.8710175 66.7734375 13.95947266 C63.50415561 17.22875455 59.85146988 16.78828074 55.47485352 16.82397461 C54.80784424 16.83054581 54.14083496 16.837117 53.45361328 16.84388733 C51.24902225 16.86357923 49.0444991 16.87527161 46.83984375 16.88525391 C46.08634077 16.88932943 45.33283779 16.89340496 44.55650139 16.89760399 C40.57079214 16.91844387 36.58511714 16.93275644 32.59936523 16.94213867 C28.48215896 16.953219 24.36549078 16.98764282 20.24847507 17.02731037 C17.08203621 17.0534393 13.91572657 17.06182698 10.74918938 17.06542015 C9.23131601 17.07029319 7.71344869 17.0819277 6.19568062 17.10045815 C4.07215578 17.12477973 1.95003718 17.12389887 -0.17358398 17.11694336 C-1.98535378 17.12574272 -1.98535378 17.12574272 -3.83372498 17.13471985 C-7.5419042 16.54755887 -8.6814073 15.61294684 -10.9140625 12.64697266 C-11.9765625 9.20947266 -11.9765625 9.20947266 -11.9140625 5.64697266 C-8.29091648 0.95627729 -5.84287745 0.01909279 0 0 Z " fill="#1370FF" transform="translate(139.9140625,351.35302734375)"/>
</svg>
